<?xml version="1.0" encoding="utf-8"?>
<!-- Generator: Adobe Illustrator 21.0.0, SVG Export Plug-In . SVG Version: 6.00 Build 0)  -->
<svg version="1.1" id="图层_1" xmlns="http://www.w3.org/2000/svg" xmlns:xlink="http://www.w3.org/1999/xlink" x="0px" y="0px"
	 viewBox="0 0 130 36" style="enable-background:new 0 0 130 36;" xml:space="preserve">
<style type="text/css">
	.st0{fill:#5D94F3;}
	.st1{fill:#3B4352;}
</style>
<title>icon画板 3</title>
<g id="切图">
	<path class="st0" d="M34.9,11.5l-8.1,8.1c-0.5,0.6-1.4,0.6-2,0c0,0,0,0,0,0l-8-8.1c-0.6-0.5-0.6-1.4,0-2c0,0,0,0,0,0l8.1-8
		c0.5-0.6,1.4-0.6,2,0c0,0,0,0,0,0l8,8.1C35.4,10.1,35.4,11,34.9,11.5z M14.1,35H2.7c-0.8,0-1.4-0.6-1.4-1.4c0,0,0,0,0,0V22.2
		c0-0.8,0.6-1.4,1.4-1.4c0,0,0,0,0,0h11.4c0.8,0,1.4,0.6,1.4,1.4c0,0,0,0,0,0v11.4C15.6,34.4,14.9,35,14.1,35
		C14.2,35,14.1,35,14.1,35z M14.1,17.9H2.7c-0.8,0-1.4-0.6-1.4-1.4c0,0,0,0,0,0V5.1c0-0.8,0.6-1.4,1.4-1.4c0,0,0,0,0,0h11.4
		c0.8,0,1.4,0.6,1.4,1.4c0,0,0,0,0,0v11.4C15.6,17.3,14.9,17.9,14.1,17.9C14.2,17.9,14.1,17.9,14.1,17.9L14.1,17.9z M19.8,20.7h11.4
		c0.8,0,1.4,0.6,1.4,1.4c0,0,0,0,0,0v11.4c0,0.8-0.6,1.4-1.4,1.4c0,0,0,0,0,0H19.8c-0.8,0-1.4-0.6-1.4-1.4c0,0,0,0,0,0V22.2
		C18.4,21.4,19,20.8,19.8,20.7C19.8,20.8,19.8,20.8,19.8,20.7L19.8,20.7z"/>
	<path class="st1" d="M49.1,14.5v-2c0.9,0.1,1.9,0.2,2.8,0.2c0.3-1.7,0.4-3.4,0.5-5.1c0.8,0.3,1.7,0.5,2.6,0.5
		c0.6,0,0.5,0.2,0.1,0.6s-0.7,1.4-1.2,4c1.5,0,3,0,4.5-0.2c-0.6,6-1.2,8.6-2.2,10.6c1,0.7,1.9,1.3,2.6,1.8c-0.7,0.5-1.3,1.2-1.7,1.9
		c-0.5-0.7-1.1-1.4-1.8-1.9c-1.3,1.9-2.9,3.5-4.8,4.8c-0.5-0.8-1.2-1.4-2-1.9c2.1-0.8,4-2.2,5.4-4.1c-1.2-0.8-2.5-1.6-3.8-2.3
		c0.8-2.3,1.4-4.7,1.8-7.1C50.8,14.3,50,14.4,49.1,14.5z M56,14.3h-2.6C53,16,52.6,18.1,52,20.7c0.8,0.5,1.7,0.9,2.5,1.4
		C55.4,19.7,55.9,17,56,14.3z M70.3,17.2v2.3c-1.3-0.1-2.9-0.2-5.1-0.2v7.6c0,1.8-0.9,2.3-4.1,2.7c-0.1-1-0.5-1.9-1.1-2.7
		c2.8,0.4,3.2,0.2,3.2-0.8v-6.7c-1.6,0-3.2,0.1-4.8,0.2v-2.3c1.6,0.2,3.2,0.2,4.8,0.2v-3.3c1.2-0.9,2.2-2,3.2-3.1h-5.1
		c-1,0-1.7,0-2.5,0.1v-2c1.5,0.1,2.5,0.1,5.4,0.1c1.8,0.1,3.6,0,5.4-0.1v2c-1.1,0.4-1.9,0.9-4.3,3.4v2.9
		C67.5,17.5,69.1,17.4,70.3,17.2L70.3,17.2z"/>
	<path class="st1" d="M75.9,28.6h-2.1C74,27.7,74,26.9,74,26v-5.4c0-0.8,0-1.6-0.2-2.4c1.4,0.2,2.9,0.3,4.3,0.2
		c1.4,0,2.9-0.1,4.3-0.2c-0.1,0.8-0.2,1.6-0.2,2.4V26c0,0.8,0,1.6,0.2,2.4h-2.1v-1.7h-4.4V28.6z M80.3,20h-4.4v5.1h4.4V20z
		 M89.5,10.2v4.3c0,0.6,0,1.2,0.1,1.8c-2.1-0.2-4.2-0.3-6.4-0.3c-2.1,0-4.2,0.1-6.4,0.3c0.1-0.6,0.2-1.2,0.2-1.8v-4.3
		c0-0.6,0-1.2-0.2-1.8c2.1,0.2,4.2,0.3,6.4,0.3c2.1,0.1,4.2,0,6.4-0.3C89.5,9,89.5,9.6,89.5,10.2L89.5,10.2z M79.2,14.4h8.2v-3.9
		h-8.2V14.4z M86.2,28.5h-2.1c0.1-0.8,0.2-1.7,0.2-2.5v-5.5c0-0.8-0.1-1.6-0.2-2.4c1.5,0.2,3,0.2,4.5,0.2c1.4,0,2.9-0.1,4.3-0.2
		c-0.1,0.8-0.2,1.6-0.2,2.4v5.4c0,0.8,0.1,1.6,0.2,2.4h-2.1v-1.6h-4.7V28.5z M90.9,20h-4.7v5h4.7V20z"/>
	<path class="st1" d="M99.7,14.5c-0.9,0-1.9,0-2.8,0.1v-1.9c0.9,0.1,1.9,0.1,2.8,0.1c0-1.7,0-3.3-0.2-5c0.7,0.1,1.4,0.1,2.1,0.1
		c0.7,0,0.8,0.1,0.3,0.6c-0.2,0.2-0.3,0.6-0.3,0.9v3.4c1,0,1.8,0,2.3-0.1v1.9c-0.6-0.1-1.4-0.1-2.3-0.1v4.1c0.8-0.3,1.5-0.6,2-0.9
		c-0.1,0.6,0,1.2,0.1,1.7c-0.7,0.2-1.5,0.5-2.2,0.8v6.2c0,1.7-0.5,1.9-3.5,2.4c-0.1-0.8-0.5-1.6-1-2.2c2,0.2,2.6-0.2,2.6-1.3v-4.3
		c-0.9,0.4-1.7,0.9-2.6,1.4c-0.1-0.8-0.3-1.6-0.6-2.4c1.1-0.2,2.1-0.5,3.1-0.8L99.7,14.5z M107.5,29.1h-2.1c0.2-1.7,0.3-3.4,0.3-5.2
		v-8.2c-0.4,0.6-0.7,1.2-1.1,1.8c-0.5-0.5-1-0.8-1.7-1c1.2-1.2,2.2-2.7,2.7-4.3c0.6-1.5,1-3,1.2-4.6c0.7,0.3,1.4,0.5,2.2,0.7
		c0.6,0,0.6,0.3,0,0.7c-0.3,0.2-0.5,0.6-1.5,2.8h4.4c1.8,0.1,3.6,0,5.3-0.1v1.9c-1.5-0.1-3-0.1-4.4-0.1v2.7c1.2,0,2.5,0,3.7-0.1v1.9
		c-1.2-0.1-2.4-0.1-3.6-0.1v3c1.3,0,2.5,0,3.8-0.1v1.9c-1.3-0.1-2.5-0.1-3.8-0.1v2.8c1.7,0.1,3.4,0,5.1-0.1v2
		c-1.7-0.1-3.5-0.2-5.3-0.1h-5.2L107.5,29.1z M107.5,16.2h3.5v-2.7h-3.5L107.5,16.2z M107.5,20.9h3.5V18h-3.5L107.5,20.9z
		 M107.5,25.4h3.5v-2.8h-3.5L107.5,25.4z M112,11.3c-0.4-1-1-1.9-1.7-2.6l1.9-1.1c0.6,0.9,1.2,1.8,1.8,2.6L112,11.3z"/>
</g>
</svg>
