<?xml version="1.0" encoding="UTF-8"?>
<svg width="550px" height="373px" viewBox="0 0 550 373" version="1.1" xmlns="http://www.w3.org/2000/svg" xmlns:xlink="http://www.w3.org/1999/xlink">
    <!-- Generator: Sketch 43.1 (39012) - http://www.bohemiancoding.com/sketch -->
    <title>矢量图3</title>
    <desc>Created with Sketch.</desc>
    <defs>
        <rect id="path-1" x="0" y="0" width="550" height="373"></rect>
    </defs>
    <g id="Page-1" stroke="none" stroke-width="1" fill="none" fill-rule="evenodd">
        <g id="矢量图3">
            <g id="Rectangle-10" opacity="0">
                <use fill="#D8D8D8" fill-rule="evenodd" xlink:href="#path-1"></use>
                <rect stroke="#979797" stroke-width="1" x="0.5" y="0.5" width="549" height="372"></rect>
            </g>
            <path d="M530.331655,120.520917 L401.96197,120.521788 C402.205642,121.549517 403.449237,122.356024 405.008736,122.484055 L530.329915,122.484055 L530.331655,120.520917 Z" id="Fill-1" fill="#F9A818"></path>
            <path d="M530.330002,127.154389 L530.330002,122.484316 L405.008823,122.484316 L405.011433,122.485187 C404.997509,122.486058 404.986196,122.488671 404.972272,122.491283 C404.985326,122.491283 405.003601,122.491283 405.015785,122.492154 C403.270052,122.635862 401.917674,123.620044 401.915063,124.818481 C401.918544,126.017789 403.270922,127.002842 405.015785,127.143937 C405.003601,127.145679 404.985326,127.145679 404.972272,127.14655 C404.986196,127.147421 404.997509,127.151776 405.011433,127.153518 L405.009693,127.154389 L530.330002,127.154389 Z" id="Fill-3" fill="#F6E6B6"></path>
            <path d="M405.00978,127.154389 C403.448541,127.281548 402.204075,128.088055 401.961274,129.115784 L530.330089,129.115784 L530.330089,127.154389 L405.00978,127.154389 Z" id="Fill-5" fill="#F9A818"></path>
            <path d="M401.961361,129.120836 C402.199811,128.091364 403.445147,127.282245 405.009867,127.154214 L405.011607,127.153343 C404.997683,127.151602 404.98637,127.147247 404.972446,127.146376 C404.9855,127.145505 405.003775,127.145505 405.015959,127.143763 C403.271096,127.002668 401.918719,126.017615 401.915238,124.819178 C401.917848,123.620741 403.270226,122.635688 405.015959,122.492851 C405.003775,122.49198 404.9855,122.49198 404.972446,122.491109 C404.98637,122.488496 404.997683,122.485884 405.011607,122.485013 L405.008997,122.484142 C403.445147,122.356111 402.200681,121.548734 401.961361,120.516649 L393.738315,124.819178 L401.961361,129.120836 Z" id="Fill-7" fill="#F0B16C"></path>
            <path d="M397.774039,122.706845 L393.737792,124.818917 L397.773168,126.931859 C398.019451,126.25077 398.155211,125.547037 398.15434,124.818917 C398.155211,124.092538 398.019451,123.38445 397.774039,122.706845" id="Fill-9" fill="#103754"></path>
            <polygon id="Fill-11" fill="#C62229" points="530.378388 120.520917 530.379258 122.484055 534.271912 122.484055 534.269301 120.521788"></polygon>
            <polygon id="Fill-13" fill="#F95A68" points="530.379258 122.484055 530.378388 127.154127 534.269301 127.154127 534.271912 122.484055"></polygon>
            <polygon id="Fill-15" fill="#C62229" points="530.378388 127.154389 530.379258 129.115784 534.271912 129.115784 534.269301 127.154389"></polygon>
            <g id="Group-2" transform="translate(387.000000, 50.000000)">
                <path d="M150.313282,45.6897514 C149.902521,45.6897514 149.483058,45.5930751 149.101016,45.3779487 L127.563056,33.7959591 C123.420639,31.5663085 119.005831,29.8557485 114.448302,28.7078268 C109.889902,27.5529375 105.190521,26.9737509 100.486789,26.9737509 L5.81514722,26.9737509 L5.81514722,21.8351031 L100.486789,21.8351031 C105.612595,21.8351031 110.729699,22.4752567 115.70234,23.7242094 C120.66802,24.9766459 125.475312,26.8448493 129.990199,29.2765619 L151.529029,40.8594224 C152.779587,41.5309305 153.244303,43.0873311 152.575076,44.3345419 C152.11123,45.1959186 151.22618,45.6897514 150.313282,45.6897514" id="Fill-17" fill="#50667E"></path>
                <path d="M3.10578,45.6897514 C3.51567046,45.6897514 3.93339322,45.5930751 4.32065703,45.3779487 L25.8560058,33.7959591 C29.9975529,31.5663085 34.41149,29.8557485 38.9672788,28.7078268 C43.5265487,27.5529375 48.2276702,26.9737509 52.9296621,26.9737509 L147.604785,26.9737509 L147.604785,21.8351031 L52.9296621,21.8351031 C47.8021152,21.8351031 42.6841411,22.4752567 37.7167213,23.7242094 C32.7484313,24.9766459 27.9437493,26.8448493 23.4245112,29.2765619 L1.88829221,40.8594224 C0.640345472,41.5309305 0.17214788,43.0873311 0.842244806,44.3345419 C1.30783163,45.1959186 2.19288173,45.6897514 3.10578,45.6897514" id="Fill-19" fill="#50667E"></path>
                <path d="M69.9633518,25.92477 L69.9633518,25.92477 C69.9633518,22.2022987 72.9901013,19.1792061 76.7069636,19.1792061 C80.4290475,19.1792061 83.455797,22.2022987 83.455797,25.92477 L88.5842141,25.92477 C88.5842141,19.3612361 83.2713027,14.0405583 76.7069636,14.0405583 C70.1495866,14.0405583 64.8331942,19.3612361 64.8331942,25.92477 L69.9633518,25.92477 Z" id="Fill-21" fill="#1F364D"></path>
                <path d="M64.8336293,33.9637055 C64.8336293,39.373221 60.4109896,43.7994257 55.0058312,43.7994257 L20.7717106,43.7994257 C15.3665522,43.7994257 10.9447827,39.373221 10.9447827,33.9637055 L10.9447827,15.493315 C10.9447827,10.0837995 15.3665522,5.65759472 20.7717106,5.65759472 L55.0058312,5.65759472 C60.4109896,5.65759472 64.8336293,10.0837995 64.8336293,15.493315 L64.8336293,33.9637055 Z" id="Fill-23" fill="#E1EFFA"></path>
                <path d="M55.0058312,5.65715924 L36.170886,5.65715924 L36.170886,43.7998612 L55.0058312,43.7998612 C60.4109896,43.7998612 64.8336293,39.3736565 64.8336293,33.96327 L64.8336293,15.4937505 C64.8336293,10.084235 60.4109896,5.65715924 55.0058312,5.65715924" id="Fill-25" fill="#CEE2F2"></path>
                <path d="M142.322855,33.9637055 C142.322855,39.373221 137.899345,43.7994257 132.494186,43.7994257 L98.2600656,43.7994257 C92.8549071,43.7994257 88.4331377,39.373221 88.4331377,33.9637055 L88.4331377,15.493315 C88.4331377,10.0837995 92.8549071,5.65759472 98.2600656,5.65759472 L132.494186,5.65759472 C137.899345,5.65759472 142.322855,10.0837995 142.322855,15.493315 L142.322855,33.9637055 Z" id="Fill-27" fill="#E1EFFA"></path>
                <path d="M132.494273,5.65715924 L113.660198,5.65715924 L113.660198,43.7998612 L132.494273,43.7998612 C137.899432,43.7998612 142.322942,39.3736565 142.322942,33.96327 L142.322942,15.4937505 C142.322942,10.084235 137.899432,5.65715924 132.494273,5.65715924" id="Fill-29" fill="#CEE2F2"></path>
                <path d="M64.8336293,33.9637055 C64.8336293,39.373221 60.4109896,43.7994257 55.0058312,43.7994257 L20.7717106,43.7994257 C15.3665522,43.7994257 10.9447827,39.373221 10.9447827,33.9637055 L10.9447827,15.493315 C10.9447827,10.0837995 15.3665522,5.65759472 20.7717106,5.65759472 L55.0058312,5.65759472 C60.4109896,5.65759472 64.8336293,10.0837995 64.8336293,15.493315 L64.8336293,33.9637055 Z M57.5548103,0.650461462 L18.2227315,0.650461462 C11.3981859,0.650461462 5.81549533,6.23939416 5.81549533,13.06857 L5.81549533,36.3884505 C5.81549533,43.2184972 11.3981859,48.806559 18.2227315,48.806559 L57.5548103,48.806559 C64.3802261,48.806559 69.963787,43.2184972 69.963787,36.3884505 L69.963787,13.06857 C69.963787,6.23939416 64.3802261,0.650461462 57.5548103,0.650461462 L57.5548103,0.650461462 Z" id="Fill-31" fill="#2A445E"></path>
                <path d="M142.322855,33.9637055 C142.322855,39.373221 137.899345,43.7994257 132.494186,43.7994257 L98.2600656,43.7994257 C92.8549071,43.7994257 88.4331377,39.373221 88.4331377,33.9637055 L88.4331377,15.493315 C88.4331377,10.0837995 92.8549071,5.65759472 98.2600656,5.65759472 L132.494186,5.65759472 C137.899345,5.65759472 142.322855,10.0837995 142.322855,15.493315 L142.322855,33.9637055 Z M135.044036,0.650461462 L95.7119567,0.650461462 C88.8874112,0.650461462 83.3038503,6.23939416 83.3038503,13.06857 L83.3038503,36.3884505 C83.3038503,43.2184972 88.8874112,48.806559 95.7119567,48.806559 L135.044036,48.806559 C141.869451,48.806559 147.452142,43.2184972 147.452142,36.3884505 L147.452142,13.06857 C147.452142,6.23939416 141.869451,0.650461462 135.044036,0.650461462 L135.044036,0.650461462 Z" id="Fill-33" fill="#2A445E"></path>
            </g>
            <polygon id="Fill-35" fill="#FFFFFF" points="10.1690037 53.0685872 223.657533 53.1861664 223.488703 355.365657 10.0001741 355.246335"></polygon>
            <path d="M141.101766,212.017415 C139.953898,215.566566 138.106345,218.758624 135.628727,221.42985 L154.296583,247.512407 C163.730156,239.374182 170.508578,228.256413 173.075832,215.566566 L141.101766,212.017415 Z" id="Fill-37" fill="#A6DAE9"></path>
            <path d="M122.051693,178.936368 C132.92815,181.204341 141.167731,190.385101 142.249459,201.642224 L174.177402,205.166988 C174.177402,204.807283 174.222655,204.459771 174.222655,204.087872 C174.222655,174.140007 151.300119,149.564206 122.051693,146.915625 L122.051693,178.936368 Z" id="Fill-39" fill="#F99B1C"></path>
            <path d="M97.9382119,186.869395 C101.493207,182.928314 106.197809,180.064606 111.628205,178.936717 L111.628205,146.915973 C94.5807653,148.448858 79.7681422,157.43975 70.2875761,170.579882 L97.9382119,186.869395 Z" id="Fill-41" fill="#14B0BF"></path>
            <path d="M127.18655,227.535609 C124.011857,228.955269 120.521262,229.767872 116.827896,229.767872 C102.664484,229.767872 91.180589,218.262527 91.180589,204.087698 C91.180589,201.191765 91.7662712,198.463056 92.6478402,195.872829 L64.9954639,179.568509 C61.4839819,187.015194 59.4336594,195.298868 59.4336594,204.087698 C59.4336594,235.814929 85.123609,261.516877 116.827896,261.516877 C127.409336,261.516877 137.298052,258.620944 145.806542,253.595521 L127.18655,227.535609 Z" id="Fill-43" fill="#4C8EB4"></path>
            <polygon id="Fill-45" fill="#F99B1C" points="32.2376451 81.2160095 58.9536263 81.2160095 58.9536263 73.4348774 32.2376451 73.4348774"></polygon>
            <polygon id="Fill-47" fill="#14B0BF" points="32.2376451 98.9469573 58.9536263 98.9469573 58.9536263 91.1666962 32.2376451 91.1666962"></polygon>
            <polygon id="Fill-48" fill="#A6DAE9" points="32.2376451 116.677905 58.9536263 116.677905 58.9536263 108.897644 32.2376451 108.897644"></polygon>
            <polygon id="Fill-49" fill="#4C8EB4" points="32.2376451 134.409724 58.9536263 134.409724 58.9536263 126.630334 32.2376451 126.630334"></polygon>
            <polygon id="Fill-50" fill="#CCCCCC" points="77.041892 82.5781867 201.417973 82.5781867 201.417973 73.8233244 77.041892 73.8233244"></polygon>
            <polygon id="Fill-51" fill="#CCCCCC" points="77.041892 108.733033 201.417973 108.733033 201.417973 99.9860093 77.041892 99.9860093"></polygon>
            <polygon id="Fill-52" fill="#CCCCCC" points="77.041892 134.890492 201.417973 134.890492 201.417973 126.149565 77.041892 126.149565"></polygon>
            <polygon id="Fill-53" fill="#CCCCCC" points="77.041892 121.809585 201.417973 121.809585 201.417973 113.069529 77.041892 113.069529"></polygon>
            <polygon id="Fill-54" fill="#CCCCCC" points="77.041892 95.6503841 201.417973 95.6503841 201.417973 86.9103281 77.041892 86.9103281"></polygon>
            <polygon id="Fill-55" fill="#CCCCCC" points="32.2402559 329.622599 37.8934372 329.622599 37.8934372 269.504774 32.2402559 269.504774"></polygon>
            <polygon id="Fill-56" fill="#CCCCCC" points="32.2376451 335.280337 201.417973 335.280337 201.417973 329.622599 32.2376451 329.622599"></polygon>
            <polygon id="Fill-57" fill="#14B0BF" points="52.7347787 329.622599 67.8798395 329.622599 67.8798395 302.889437 52.7347787 302.889437"></polygon>
            <polygon id="Fill-58" fill="#A6DAE9" points="52.7347787 302.889437 67.8798395 302.889437 67.8798395 289.524598 52.7347787 289.524598"></polygon>
            <polygon id="Fill-59" fill="#14B0BF" points="80.9780588 329.622599 96.12486 329.622599 96.12486 291.313544 80.9780588 291.313544"></polygon>
            <polygon id="Fill-60" fill="#A6DAE9" points="80.9780588 291.313544 96.12486 291.313544 96.12486 283.651733 80.9780588 283.651733"></polygon>
            <polygon id="Fill-61" fill="#14B0BF" points="109.222209 329.622599 124.36814 329.622599 124.36814 310.171511 109.222209 310.171511"></polygon>
            <polygon id="Fill-62" fill="#A6DAE9" points="109.222209 310.171511 124.36814 310.171511 124.36814 296.206582 109.222209 296.206582"></polygon>
            <polygon id="Fill-63" fill="#14B0BF" points="137.466359 329.622599 152.61229 329.622599 152.61229 318.483056 137.466359 318.483056"></polygon>
            <polygon id="Fill-64" fill="#A6DAE9" points="137.466359 318.483056 152.61229 318.483056 152.61229 307.345254 137.466359 307.345254"></polygon>
            <polygon id="Fill-65" fill="#000000" opacity="0.06" points="162.00148 316.511818 223.509415 316.547527 223.657359 53.1857309 162.149423 53.1526346"></polygon>
            <polygon id="Fill-66" fill="#FFFFFF" points="172.469177 6.99965162 383.968301 7.11723085 383.800342 306.480045 172.301217 306.360724"></polygon>
            <polygon id="Fill-67" fill="#4C8EB4" points="199.011107 161.746808 217.276034 161.757259 217.245576 178.386446 198.977167 178.375994"></polygon>
            <polygon id="Fill-68" fill="#609DC1" points="220.117419 154.588671 238.385828 154.597381 238.364942 178.397159 220.098274 178.386707"></polygon>
            <polygon id="Fill-69" fill="#73ACCD" points="241.232957 137.919682 259.499625 137.928391 259.48396 178.408742 241.219033 178.399162"></polygon>
            <polygon id="Fill-70" fill="#87BBDA" points="262.358328 143.543453 280.624126 143.554775 280.60411 178.420065 262.340053 178.409613"></polygon>
            <polygon id="Fill-71" fill="#9ACAE6" points="283.472647 160.970262 301.739315 160.980714 301.724521 178.432955 283.460463 178.422503"></polygon>
            <polygon id="Fill-72" fill="#73ACCD" points="304.055849 154.367535 322.320777 154.377987 322.309463 178.409439 304.041925 178.398988"></polygon>
            <polygon id="Fill-73" fill="#87BBDA" points="325.182526 143.538401 343.446583 143.550594 343.428308 178.420239 325.16251 178.409788"></polygon>
            <polygon id="Fill-74" fill="#9ACAE6" points="346.294669 120.514123 364.562207 120.523704 364.549154 178.432781 346.283356 178.422329"></polygon>
            <polygon id="Fill-75" fill="#CCCCCC" points="191.764835 203.010149 271.011194 203.053697 271.010324 208.32386 191.760484 208.279441"></polygon>
            <polygon id="Fill-76" fill="#CCCCCC" points="191.758047 212.231758 271.007887 212.274435 271.003536 217.544597 191.756307 217.501049"></polygon>
            <polygon id="Fill-77" fill="#CCCCCC" points="191.753348 221.453366 271.000577 221.497785 270.998836 226.767076 191.749867 226.724399"></polygon>
            <polygon id="Fill-78" fill="#CCCCCC" points="191.748649 230.674974 270.995877 230.719393 270.994137 235.987814 191.745168 235.947749"></polygon>
            <polygon id="Fill-79" fill="#CCCCCC" points="191.743601 239.897366 270.99083 239.940914 270.987349 245.211077 191.74012 245.166658"></polygon>
            <polygon id="Fill-80" fill="#CCCCCC" points="191.738467 249.118104 270.987436 249.162523 270.982214 254.433556 191.735856 254.387395"></polygon>
            <polygon id="Fill-81" fill="#CCCCCC" points="191.731243 258.340583 270.981953 258.384131 270.977602 263.656906 191.730373 263.610745"></polygon>
            <polygon id="Fill-82" fill="#CCCCCC" points="191.728285 267.563062 231.352769 267.584836 231.350159 272.854999 191.725674 272.834096"></polygon>
            <polygon id="Fill-83" fill="#CCCCCC" points="285.193665 203.062842 364.441764 203.105519 364.438283 208.375682 285.191054 208.331263"></polygon>
            <polygon id="Fill-84" fill="#CCCCCC" points="285.188095 212.28358 364.437935 212.327998 364.432713 217.59729 285.185484 217.553742"></polygon>
            <polygon id="Fill-85" fill="#CCCCCC" points="285.182613 221.506059 364.430712 221.547865 364.428101 226.819769 285.180872 226.776221"></polygon>
            <polygon id="Fill-86" fill="#CCCCCC" points="285.177913 230.727667 364.426012 230.772086 364.425142 236.039635 285.175302 235.99783"></polygon>
            <polygon id="Fill-87" fill="#CCCCCC" points="285.173649 239.949275 364.420008 239.994565 364.418267 245.262986 285.169298 245.219438"></polygon>
            <polygon id="Fill-88" fill="#CCCCCC" points="285.167731 249.171755 364.41583 249.216174 364.412349 254.485465 285.16425 254.442788"></polygon>
            <polygon id="Fill-89" fill="#CCCCCC" points="285.160508 258.393363 364.410348 258.43604 364.406867 263.707944 285.159638 263.662654"></polygon>
            <polygon id="Fill-90" fill="#CCCCCC" points="285.157549 267.616626 340.939202 267.646239 340.936591 272.91553 285.154938 272.885047"></polygon>
            <polygon id="Fill-91" fill="#FEC00F" points="203.159268 106.844623 198.29976 100.25409 258.608483 55.7368518 297.807413 82.5562385 360.406649 39.656368 365.026837 46.4123835 297.809153 92.4799255 258.788626 65.7816018"></polygon>
            <polygon id="Fill-92" fill="#FEC00F" points="365.599291 60.7591397 359.050617 60.7591397 359.050617 46.3099589 344.613074 46.3099589 344.613074 39.7586184 365.599291 39.7586184"></polygon>
            <path d="M306.290144,85.9803199 C306.290144,81.0045411 302.257378,76.9711381 297.288218,76.9711381 C292.318188,76.9711381 288.287163,81.0045411 288.287163,85.9803199 C288.287163,90.9534858 292.318188,94.9886308 297.288218,94.9886308 C302.257378,94.9886308 306.290144,90.9534858 306.290144,85.9803199" id="Fill-93" fill="#14B0BF"></path>
            <path d="M267.834847,60.7591397 C267.834847,55.7842319 263.805563,51.7508289 258.832922,51.7508289 C253.862021,51.7508289 249.832737,55.7842319 249.832737,60.7591397 C249.832737,65.7349185 253.862021,69.7683216 258.832922,69.7683216 C263.805563,69.7683216 267.834847,65.7349185 267.834847,60.7591397" id="Fill-94" fill="#14B0BF"></path>
            <path d="M291.71423,204.009486 C283.228366,212.50219 278.542909,223.781086 278.515931,235.756749 C278.469808,260.580772 298.611007,280.813109 323.418517,280.851431 C335.452414,280.874947 346.775311,276.184842 355.322963,267.637268 C363.805346,259.148048 368.488192,247.883086 368.509078,235.915263 C368.532575,223.905633 363.860172,212.597124 355.363865,204.066098 C346.869299,195.532459 335.583822,190.825806 323.582125,190.801419 C311.566504,190.782258 300.247958,195.473234 291.71423,204.009486" id="Fill-95" fill="#FFFFFF" opacity="0.199999988"></path>
            <path d="M352.315968,270.386009 C352.815495,269.96882 353.30893,269.539439 353.791052,269.097863 C353.30893,269.539439 352.815495,269.96882 352.315968,270.386009" id="Fill-96" fill="#A6DAE9"></path>
            <path d="M353.889913,269.008155 C354.375516,268.562224 354.853286,268.106714 355.322354,267.637268 C354.853286,268.106714 354.374645,268.562224 353.889913,269.008155" id="Fill-97" fill="#A6DAE9"></path>
            <path d="M291.71423,204.009486 C299.3368,196.384255 309.183744,191.831761 319.764313,190.959062 C317.697456,191.131512 315.660187,191.445927 313.659469,191.89447 C308.76254,194.111057 304.251134,197.205568 300.330632,201.134456 C291.845639,209.626289 287.163663,220.900831 287.141036,232.879977 C287.093172,257.704 307.237852,277.932854 332.042752,277.98424 C335.420214,277.986853 338.748942,277.610599 341.97237,276.889447 C345.637017,275.229402 349.088451,273.075525 352.238777,270.451331 C344.137566,277.206475 334.055653,280.871463 323.418517,280.851431 C298.611007,280.813109 278.469808,260.580772 278.515931,235.756749 C278.542909,223.781086 283.228366,212.50219 291.71423,204.009486" id="Fill-98" fill="#FFFFFF" opacity="0.5"></path>
            <path d="M319.84281,190.952007 C320.196134,190.924137 320.551199,190.89975 320.908003,190.878847 C320.551199,190.900621 320.197004,190.923266 319.84281,190.952007" id="Fill-99" fill="#A6DAE9"></path>
            <path d="M321.130354,190.866044 C321.447997,190.849496 321.76564,190.837302 322.084154,190.827722 C321.76564,190.837302 321.447997,190.848625 321.130354,190.866044" id="Fill-100" fill="#A6DAE9"></path>
            <path d="M322.373688,190.817619 C322.775746,190.807167 323.178675,190.801071 323.582473,190.801071 C323.178675,190.801071 322.775746,190.807167 322.373688,190.817619" id="Fill-101" fill="#A6DAE9"></path>
            <path d="M378.873215,291.709133 C375.853428,294.728742 370.955628,294.713935 367.941062,291.68823 L358.305591,281.732318 C355.297987,278.703999 355.301468,273.815316 358.312553,270.801804 C358.312553,270.801804 358.328217,270.792223 358.33605,270.787869 C361.358448,267.773486 366.252766,267.779582 369.268202,270.813126 L378.902804,280.765555 C381.910408,283.786906 381.906927,288.679073 378.89149,291.695198 C378.89149,291.695198 378.876696,291.704778 378.873215,291.709133" id="Fill-102" fill="#0E303F"></path>
            <path d="M278.51628,235.756923 C278.542387,223.781261 283.228714,212.502364 291.714578,204.00966 C300.247436,195.473408 311.566852,190.782432 323.582473,190.801593 C335.58417,190.82598 346.868777,195.531762 355.363343,204.066272 C363.86052,212.597298 368.532053,223.905807 368.509426,235.915437 C368.48767,247.883261 363.804824,259.147351 355.322441,267.637442 C346.774789,276.185017 335.451892,280.875121 323.417995,280.850735 C298.610485,280.812412 278.469286,260.580946 278.51628,235.756923 M263.051835,235.729052 C262.989176,269.083231 290.061963,296.274517 323.392758,296.334613 C339.566461,296.361612 354.794196,290.061108 366.256334,278.586246 L366.256334,278.58102 C377.654944,267.177577 383.941672,252.03163 383.967779,235.940695 C383.999979,219.801857 377.728045,204.599298 366.318122,193.139242 C354.907329,181.6818 339.737031,175.352553 323.614673,175.324683 C307.446191,175.302038 292.234991,181.595575 280.774593,193.062598 C269.375113,204.475622 263.077072,219.630278 263.051835,235.729052" id="Fill-103" fill="#2C5871"></path>
            <polygon id="Fill-104" fill="#103754" points="362.033244 296.72306 384.021996 274.716583 452.883593 343.632817 430.894841 365.640165"></polygon>
            <polygon id="Fill-105" fill="#2C5871" points="366.587641 292.163337 379.465685 279.274912 448.327282 348.192888 435.450108 361.080443"></polygon>
            <polygon id="Fill-106" fill="#0E303F" points="420.332721 355.070402 442.322343 333.063054 452.882897 343.632991 430.895015 365.640339"></polygon>
            <polygon id="Fill-107" fill="#164866" points="424.887988 350.509809 437.766032 337.622254 448.327456 348.193062 435.450282 361.080617"></polygon>
            <path d="M343.922787,203.856459 C333.162945,198.538394 320.985456,197.71621 309.643413,201.534486 C305.706376,202.860954 302.081761,204.693448 298.797416,206.918744 L302.120922,215.735444 C305.948307,212.79248 310.308288,210.411283 315.132986,208.786077 C326.47677,204.963445 338.648167,205.783016 349.408879,211.10021 C354.372818,213.552826 358.817214,216.956527 362.482731,220.877576 C358.095772,213.612922 351.733332,207.719154 343.922787,203.856459" id="Fill-108" fill="#FFFFFF"></path>
            <path d="M510.345536,188.341661 L417.664169,188.341661 L417.664169,276.797822 C417.664169,277.89697 418.083632,278.99786 418.92604,279.835721 C419.763226,280.67184 420.860618,281.091641 421.959751,281.091641 L506.052564,281.091641 C507.149086,281.091641 508.247349,280.67184 509.087146,279.835721 C509.921721,278.99786 510.345536,277.89697 510.345536,276.797822 L510.345536,188.341661 Z" id="Fill-109" fill="#617B93"></path>
            <polygon id="Fill-110" fill="#FFFFFF" opacity="0.2" points="429.388863 188.341661 510.345275 188.341661 510.345275 266.165176"></polygon>
            <path d="M459.563937,208.241815 C459.563937,208.656391 459.223667,208.995193 458.813777,208.995193 L427.939713,208.995193 C427.527212,208.995193 427.191294,208.656391 427.191294,208.241815 L427.191294,198.298967 C427.191294,197.890488 427.527212,197.550815 427.939713,197.550815 L458.813777,197.550815 C459.223667,197.550815 459.563937,197.890488 459.563937,198.298967 L459.563937,208.241815 Z" id="Fill-111" fill="#21D8DE"></path>
            <path d="M480.510384,208.241815 C480.510384,208.656391 480.170984,208.995193 479.757613,208.995193 L469.833216,208.995193 C469.422455,208.995193 469.084796,208.656391 469.084796,208.241815 L469.084796,198.298967 C469.084796,197.890488 469.422455,197.550815 469.833216,197.550815 L479.757613,197.550815 C480.170984,197.550815 480.510384,197.890488 480.510384,198.298967 L480.510384,208.241815 Z" id="Fill-112" fill="#E64717"></path>
            <path d="M501.450913,208.241815 C501.450913,208.656391 501.115864,208.995193 500.705104,208.995193 L490.776356,208.995193 C490.367335,208.995193 490.031417,208.656391 490.031417,208.241815 L490.031417,198.298967 C490.031417,197.890488 490.367335,197.550815 490.776356,197.550815 L500.705104,197.550815 C501.115864,197.550815 501.450913,197.890488 501.450913,198.298967 L501.450913,208.241815 Z" id="Fill-113" fill="#F2F9FF"></path>
            <path d="M438.614009,229.210285 C438.614009,229.619635 438.281572,229.954083 437.86907,229.954083 L427.939452,229.954083 C427.526951,229.954083 427.191032,229.619635 427.191032,229.210285 L427.191032,219.268308 C427.191032,218.853733 427.526951,218.520156 427.939452,218.520156 L437.86907,218.520156 C438.281572,218.520156 438.614009,218.853733 438.614009,219.268308 L438.614009,229.210285 Z" id="Fill-114" fill="#F2F9FF"></path>
            <path d="M459.563937,229.210285 C459.563937,229.619635 459.223667,229.954083 458.813777,229.954083 L448.885899,229.954083 C448.472528,229.954083 448.135739,229.619635 448.135739,229.210285 L448.135739,219.268308 C448.135739,218.853733 448.472528,218.520156 448.885899,218.520156 L458.813777,218.520156 C459.223667,218.520156 459.563937,218.853733 459.563937,219.268308 L459.563937,229.210285 Z" id="Fill-115" fill="#F2F9FF"></path>
            <path d="M480.510384,229.210285 C480.510384,229.619635 480.170984,229.954083 479.757613,229.954083 L469.833216,229.954083 C469.422455,229.954083 469.084796,229.619635 469.084796,229.210285 L469.084796,219.268308 C469.084796,218.853733 469.422455,218.520156 469.833216,218.520156 L479.757613,218.520156 C480.170984,218.520156 480.510384,218.853733 480.510384,219.268308 L480.510384,229.210285 Z" id="Fill-116" fill="#F2F9FF"></path>
            <path d="M501.450913,229.210285 C501.450913,229.619635 501.115864,229.954083 500.705104,229.954083 L490.776356,229.954083 C490.367335,229.954083 490.031417,229.619635 490.031417,229.210285 L490.031417,219.268308 C490.031417,218.853733 490.367335,218.520156 490.776356,218.520156 L500.705104,218.520156 C501.115864,218.520156 501.450913,218.853733 501.450913,219.268308 L501.450913,229.210285 Z" id="Fill-117" fill="#F2F9FF"></path>
            <path d="M438.614009,250.169436 C438.614009,250.583141 438.281572,250.91846 437.86907,250.91846 L427.939452,250.91846 C427.526951,250.91846 427.191032,250.583141 427.191032,250.169436 L427.191032,240.231814 C427.191032,239.818109 427.526951,239.482791 427.939452,239.482791 L437.86907,239.482791 C438.281572,239.482791 438.614009,239.818109 438.614009,240.231814 L438.614009,250.169436 Z" id="Fill-118" fill="#F2F9FF"></path>
            <path d="M459.563937,250.169436 C459.563937,250.583141 459.223667,250.91846 458.813777,250.91846 L448.885899,250.91846 C448.472528,250.91846 448.135739,250.583141 448.135739,250.169436 L448.135739,240.231814 C448.135739,239.818109 448.472528,239.482791 448.885899,239.482791 L458.813777,239.482791 C459.223667,239.482791 459.563937,239.818109 459.563937,240.231814 L459.563937,250.169436 Z" id="Fill-119" fill="#F2F9FF"></path>
            <path d="M480.510384,250.169436 C480.510384,250.583141 480.170984,250.91846 479.757613,250.91846 L469.833216,250.91846 C469.422455,250.91846 469.084796,250.583141 469.084796,250.169436 L469.084796,240.231814 C469.084796,239.818109 469.422455,239.482791 469.833216,239.482791 L479.757613,239.482791 C480.170984,239.482791 480.510384,239.818109 480.510384,240.231814 L480.510384,250.169436 Z" id="Fill-120" fill="#1F364D"></path>
            <path d="M438.614009,271.132768 C438.614009,271.547343 438.281572,271.881791 437.86907,271.881791 L427.939452,271.881791 C427.526951,271.881791 427.191032,271.547343 427.191032,271.132768 L427.191032,261.200371 C427.191032,260.786667 427.526951,260.446122 427.939452,260.446122 L437.86907,260.446122 C438.281572,260.446122 438.614009,260.786667 438.614009,261.200371 L438.614009,271.132768 Z" id="Fill-121" fill="#F2F9FF"></path>
            <path d="M459.563937,271.132768 C459.563937,271.547343 459.223667,271.881791 458.813777,271.881791 L448.885899,271.881791 C448.472528,271.881791 448.135739,271.547343 448.135739,271.132768 L448.135739,261.200371 C448.135739,260.786667 448.472528,260.446122 448.885899,260.446122 L458.813777,260.446122 C459.223667,260.446122 459.563937,260.786667 459.563937,261.200371 L459.563937,271.132768 Z" id="Fill-122" fill="#F2F9FF"></path>
            <path d="M480.510384,271.132768 C480.510384,271.547343 480.170984,271.881791 479.757613,271.881791 L469.833216,271.881791 C469.422455,271.881791 469.084796,271.547343 469.084796,271.132768 L469.084796,261.200371 C469.084796,260.786667 469.422455,260.446122 469.833216,260.446122 L479.757613,260.446122 C480.170984,260.446122 480.510384,260.786667 480.510384,261.200371 L480.510384,271.132768 Z" id="Fill-123" fill="#1F364D"></path>
            <path d="M501.450913,271.132768 C501.450913,271.547343 501.115864,271.881791 500.705104,271.881791 L490.776356,271.881791 C490.367335,271.881791 490.031417,271.547343 490.031417,271.132768 L490.031417,261.200371 C490.031417,260.786667 490.367335,260.446122 490.776356,260.446122 L500.705104,260.446122 C501.115864,260.446122 501.450913,260.786667 501.450913,261.200371 L501.450913,271.132768 Z" id="Fill-124" fill="#1F364D"></path>
            <path d="M501.450913,250.169436 C501.450913,250.583141 501.115864,250.91846 500.705104,250.91846 L490.776356,250.91846 C490.367335,250.91846 490.031417,250.583141 490.031417,250.169436 L490.031417,240.231814 C490.031417,239.818109 490.367335,239.482791 490.776356,239.482791 L500.705104,239.482791 C501.115864,239.482791 501.450913,239.818109 501.450913,240.231814 L501.450913,250.169436 Z" id="Fill-125" fill="#1F364D"></path>
            <path d="M510.345536,151.354023 C510.345536,150.252262 509.921721,149.153114 509.087146,148.314382 C508.247349,147.473908 507.149086,147.054978 506.052564,147.054978 L421.959751,147.054978 C420.860618,147.054978 419.763226,147.473908 418.92604,148.314382 C418.083632,149.153114 417.664169,150.252262 417.664169,151.354023 L417.664169,188.341836 L510.345536,188.341836 L510.345536,151.354023 Z" id="Fill-126" fill="#365772"></path>
            <path d="M427.939801,180.921541 C427.265352,180.921541 426.625714,180.659383 426.147944,180.178615 C425.670174,179.700459 425.404746,179.065531 425.404746,178.387926 L425.404746,157.017248 C425.404746,156.340515 425.670174,155.702103 426.147944,155.225689 C426.625714,154.749276 427.265352,154.481892 427.939801,154.481892 L500.704494,154.481892 C501.385905,154.481892 502.027283,154.749276 502.503313,155.231786 C502.974992,155.702103 503.24042,156.340515 503.24042,157.017248 L503.24042,178.387926 C503.24042,179.065531 502.974992,179.700459 502.498962,180.178615 C502.027283,180.654157 501.385905,180.921541 500.704494,180.921541 L427.939801,180.921541 Z" id="Fill-127" fill="#2F4F6B"></path>
            <path d="M427.939801,156.266744 C427.748344,156.266744 427.557758,156.340776 427.411555,156.487097 C427.265352,156.633417 427.191381,156.825899 427.191381,157.016639 L427.191381,178.387317 C427.191381,178.575444 427.265352,178.770538 427.411555,178.916859 C427.557758,179.06318 427.748344,179.137211 427.939801,179.137211 L500.704494,179.137211 C500.896821,179.137211 501.087407,179.06318 501.23535,178.916859 C501.378072,178.770538 501.451174,178.575444 501.451174,178.387317 L501.451174,157.016639 C501.451174,156.825899 501.378072,156.633417 501.23535,156.487097 C501.087407,156.340776 500.896821,156.266744 500.704494,156.266744 L427.939801,156.266744 Z" id="Fill-128" fill="#FEC00F"></path>
            <polygon id="Fill-129" fill="#2F4F6B" points="417.664343 188.34201 510.34571 188.34201 510.34571 186.555677 417.664343 186.555677"></polygon>
        </g>
    </g>
</svg>