<?xml version="1.0" encoding="UTF-8"?>
<svg width="550px" height="433px" viewBox="0 0 550 433" version="1.1" xmlns="http://www.w3.org/2000/svg" xmlns:xlink="http://www.w3.org/1999/xlink">
    <!-- Generator: Sketch 43.1 (39012) - http://www.bohemiancoding.com/sketch -->
    <title>矢量图4</title>
    <desc>Created with Sketch.</desc>
    <defs>
        <polygon id="path-1" points="30.9801754 61.3507669 61.8574502 61.3507669 61.8574502 0.0824326907 0.10290071 0.0824326907 0.10290071 61.3507669 30.9801754 61.3507669"></polygon>
        <polygon id="path-3" points="42.5716496 0.193764198 0 0.193764198 0 42.2129992 42.5716496 42.2129992 42.5716496 0.193764198"></polygon>
        <polygon id="path-5" points="5.03806783e-16 45.0346738 5.03806783e-16 0.536012964 62.6215761 0.536012964 62.6215761 45.0346738 0 45.0346738"></polygon>
        <polygon id="path-7" points="5.03806783e-16 36.8285881 5.03806783e-16 0.0847888457 62.6215761 0.0847888457 62.6215761 36.8285881 0 36.8285881"></polygon>
    </defs>
    <g id="Page-1" stroke="none" stroke-width="1" fill="none" fill-rule="evenodd">
        <g id="矢量图4">
            <rect id="Rectangle-12" fill="#D8D8D8" opacity="0" x="0" y="0" width="550" height="433"></rect>
            <g id="Group-10" transform="translate(10.000000, 8.000000)">
                <g id="Page-1" transform="translate(339.023006, 345.473589)">
                    <g id="Group-3" transform="translate(40.115848, 1.701240)">
                        <mask id="mask-2" fill="white">
                            <use xlink:href="#path-1"></use>
                        </mask>
                        <g id="Clip-2"></g>
                        <path d="M49.8776475,42.351453 C51.4632916,39.7898808 52.4792433,36.9431105 52.9259771,34.0252775 L61.8575689,32.476822 L59.450618,18.6731363 L50.5365918,20.2199336 C49.8235267,18.9213819 49.0036442,17.6938928 48.0223489,16.5201745 C47.0427151,15.3635112 45.9731174,14.3151 44.8318334,13.4066823 L47.9520868,4.92156326 L34.7591951,0.0824326907 L31.6396539,8.58579111 C28.6803386,8.49648903 25.7029832,8.99605956 22.8687629,10.0970571 L17.0745153,3.16063044 L6.28904926,12.1436618 L12.100625,19.0817466 C10.5142687,21.6617951 9.48027681,24.4900892 9.05229531,27.4263984 L0.10290071,28.9731958 L2.50985157,42.7785396 L11.4414433,41.230321 C12.1369429,42.5118177 12.9729666,43.7563618 13.9549741,44.9127883 C14.9355573,46.0879279 16.0049177,47.1183365 17.1454895,48.0435724 L14.0261857,56.5298758 L27.2190774,61.3507669 L30.3376691,52.8474085 C33.2979338,52.9369475 36.2750519,52.4385613 39.0917066,51.3361425 L44.9023329,58.2742273 L55.6889858,49.2895378 L49.8776475,42.351453 Z" id="Fill-1" fill="#F14C47" mask="url(#mask-2)"></path>
                    </g>
                    <path d="M79.9561777,43.0024817 C85.8202126,38.1292411 86.5881106,29.4283284 81.7032347,23.5758443 C76.8181215,17.7418364 68.1015887,16.958489 62.253695,21.8331509 C56.3882359,26.7248678 55.6039592,35.4058829 60.5059259,41.2597883 C65.3917513,47.0952174 74.1082841,47.8771436 79.9561777,43.0024817 M75.6058633,37.7914565 C78.5829814,35.3180021 78.9755945,30.9057212 76.4967199,27.9355387 C74.000992,24.963935 69.5804155,24.5721428 66.6032974,27.0458342 C63.6259419,29.5178674 63.2335662,33.9483877 65.7114912,36.9185702 C68.2081686,39.8904108 72.6294573,40.2822029 75.6058633,37.7914565" id="Fill-4" fill="#F9E07C"></path>
                    <g id="Group-8" transform="translate(0.000000, 0.043111)">
                        <mask id="mask-4" fill="white">
                            <use xlink:href="#path-3"></use>
                        </mask>
                        <g id="Clip-7"></g>
                        <path d="M35.4049178,15.0123432 C34.5494296,13.0908087 33.3200806,11.3819885 31.8217893,9.97731652 L34.4606525,4.26648393 L25.5824695,0.19364576 L22.9621213,5.90424147 C21.9461696,5.7964631 20.9121777,5.77940806 19.8599082,5.88576518 C18.8088255,5.97530413 17.7736467,6.18825525 16.8108664,6.47345341 L13.1560516,1.34888781 L5.20480573,6.98842085 L8.84276715,12.1115652 C7.63027159,13.7663778 6.73941493,15.6691991 6.25802475,17.7158038 L-4.7474376e-05,18.3032552 L0.891758677,27.9988082 L7.16668431,27.4113568 C8.02288468,29.3328913 9.23443075,31.0414746 10.7505249,32.4463835 L8.11189913,38.1569792 L16.9715672,42.2129992 L19.6109051,36.5024035 C20.626382,36.6087606 21.661086,36.6272369 22.7126434,36.5379348 C23.7642009,36.4313408 24.7803899,36.2354448 25.7609731,35.9331916 L29.397985,41.0563359 L37.3667964,35.433621 L33.7295471,30.3121348 C34.9420427,28.6388459 35.8328993,26.7528428 36.3142895,24.7078962 L42.5716496,24.1204449 L41.6629901,14.4248918 L35.4049178,15.0123432 Z" id="Fill-6" fill="#F14C47" mask="url(#mask-4)"></path>
                    </g>
                    <path d="M30.841301,20.3558765 C30.342108,15.0894225 25.6720536,11.2309567 20.3945646,11.7103928 C15.1184998,12.2085421 11.2320101,16.8704897 11.7309658,22.1355225 C12.2125933,27.4019766 16.9011627,31.2789187 22.1779395,30.7807694 C27.4537669,30.3010964 31.3404941,25.6223306 30.841301,20.3558765 M26.1356409,20.8014394 C25.8852136,18.1150338 23.5145806,16.1579681 20.8410611,16.4064505 C18.1490266,16.6561173 16.1693452,19.0217934 16.4197725,21.708199 C16.6692503,24.3763652 19.0576862,26.3516704 21.7321551,26.1034248 C24.4241896,25.8535211 26.3844066,23.4696056 26.1356409,20.8014394" id="Fill-9" fill="#F9E07C"></path>
                </g>
                <g id="Group-5" transform="translate(310.723562, 0.000000)">
                    <path d="M97.0883018,0.282617319 L20.7005963,0.282617319 L20.7005963,81.3470317 C20.7005963,88.0812298 26.1591291,93.5397627 32.8922322,93.5397627 L104.726963,93.5397627 L97.0883018,85.9602311 L97.0883018,0.282617319 Z" id="Fill-83" fill="#FFFFFF"></path>
                    <polygon id="Fill-85" fill="#D5D4D5" points="26.6707092 10.4297945 88.8717042 10.4297945 88.8717042 6.50972476 26.6707092 6.50972476"></polygon>
                    <polygon id="Fill-87" fill="#D5D4D5" points="26.6718042 19.7076579 51.83909 19.7076579 51.83909 15.7875882 26.6718042 15.7875882"></polygon>
                    <polygon id="Fill-88" fill="#D5D4D5" points="26.6707092 29.551632 69.2702604 29.551632 69.2702604 25.6315622 26.6707092 25.6315622"></polygon>
                    <polygon id="Fill-89" fill="#D5D4D5" points="74.4977501 29.5527269 86.8645847 29.5527269 86.8645847 25.6326572 74.4977501 25.6326572"></polygon>
                    <polygon id="Fill-90" fill="#D5D4D5" points="26.6718042 39.657309 70.3159774 39.657309 70.3159774 35.7372392 26.6718042 35.7372392"></polygon>
                    <polygon id="Fill-92" fill="#D5D4D5" points="26.6707092 59.868663 63.8697621 59.868663 63.8697621 55.9485932 26.6707092 55.9485932"></polygon>
                    <polygon id="Fill-93" fill="#D5D4D5" points="26.6707092 69.97434 63.8697621 69.97434 63.8697621 66.0542703 26.6707092 66.0542703"></polygon>
                    <path d="M111.522042,42.8376024 L96.6257773,42.8376024 L96.6257773,86.0897686 C96.6257773,90.2036519 99.9589316,93.5389962 104.072815,93.5389962 C108.186698,93.5389962 111.522042,90.2036519 111.522042,86.0897686 L111.522042,42.8376024 Z" id="Fill-94" fill="#D5D4D5"></path>
                    <path d="M94.7529038,59.2521828 L94.7529038,103.05294 C94.7529038,107.967262 90.7649446,111.939891 85.8659524,111.939891 L14.7878609,111.939891 C10.9827652,111.939891 7.73940028,109.553905 6.47687502,106.19885 C6.09691295,105.215548 5.89981447,104.163261 5.89981447,103.05294 L5.89981447,46.266678 C5.89981447,41.3523559 9.87353881,37.3654917 14.7878609,37.3654917 L30.4407651,37.3654917 C34.7791216,37.3654917 38.3017094,40.8891745 38.3017094,45.2417659 C38.3017094,47.6277525 40.2398445,49.5658875 42.6400659,49.5658875 L85.0797484,49.5658875 C90.4145473,49.5658875 94.7529038,53.903149 94.7529038,59.2521828" id="Fill-95" fill="#000000" opacity="0.199999988"></path>
                    <path d="M89.8308073,62.8874452 L89.8308073,106.688202 C89.8308073,111.602524 85.8428481,115.575154 80.9438559,115.575154 L9.86576437,115.575154 C6.06066873,115.575154 2.81730376,113.189167 1.5547785,109.834113 C1.17481643,108.850811 0.977717955,107.798524 0.977717955,106.688202 L0.977717955,49.9019404 C0.977717955,44.9876183 4.95144229,41.0007541 9.86576437,41.0007541 L25.5186686,41.0007541 C29.8570251,41.0007541 33.3796129,44.5244369 33.3796129,48.8770283 C33.3796129,51.2630149 35.317748,53.2011499 37.7179694,53.2011499 L80.1576519,53.2011499 C85.4924508,53.2011499 89.8308073,57.5384115 89.8308073,62.8874452" id="Fill-95" fill="#FFCF5D"></path>
                </g>
                <g id="Group-8" transform="translate(30.836364, 145.528757)">
                    <g id="Group-70" transform="translate(0.662090, 0.324409)">
                        <mask id="mask-6" fill="white">
                            <use xlink:href="#path-5"></use>
                        </mask>
                        <g id="Clip-69"></g>
                        <path d="M62.6215761,4.35814667 L62.6215761,41.2125401 C62.6215761,41.2589896 62.6215761,41.3142867 62.6127286,41.3607362 C62.5389992,43.404516 60.8623919,45.0346738 58.8001797,45.0346738 L3.81203277,45.0346738 C1.70337105,45.0346738 -0.000516106017,43.3219391 -0.000516106017,41.2125401 L-0.000516106017,4.35814667 C-0.000516106017,2.76485366 0.966814029,1.40233378 2.35808839,0.822083156 C2.80857522,0.637759578 3.29666405,0.536012964 3.81203277,0.536012964 L58.8001797,0.536012964 C59.3162857,0.536012964 59.8043746,0.637759578 60.2548614,0.822083156 C61.6461358,1.39274895 62.6215761,2.76485366 62.6215761,4.35814667" id="Fill-68" fill="#FFCF5D" mask="url(#mask-6)"></path>
                    </g>
                    <g id="Group-73" transform="translate(0.662090, 1.061704)">
                        <mask id="mask-8" fill="white">
                            <use xlink:href="#path-7"></use>
                        </mask>
                        <g id="Clip-72"></g>
                        <path d="M62.6215761,3.62085236 L62.6215761,8.61233484 L31.3020511,36.8285881 L-0.000516106017,8.62118237 L-0.000516106017,3.62085236 C-0.000516106017,2.02755935 0.966814029,0.665039468 2.35808839,0.0847888457 L60.2548614,0.0847888457 C61.6461358,0.655454642 62.6215761,2.02755935 62.6215761,3.62085236" id="Fill-71" fill="#E9B134" mask="url(#mask-8)"></path>
                    </g>
                    <g id="Group-78" transform="translate(0.000000, 0.324409)" fill="#FFCF5D">
                        <path d="M63.2836664,4.35814667 L31.9641414,32.5655524 L0.661574185,4.35814667 C0.661574185,2.24948494 2.36546134,0.536012964 4.47412306,0.536012964 L59.46227,0.536012964 C61.5709317,0.536012964 63.2836664,2.24948494 63.2836664,4.35814667" id="Fill-76"></path>
                    </g>
                </g>
                <g id="Group-9" transform="translate(0.000000, 284.174397)">
                    <path d="M91.2629467,0.497892658 L42.8446104,0.497892658 C35.2147092,0.497892658 29.029102,6.68349992 29.029102,14.313401 L29.029102,42.3528497 C29.029102,49.9816558 35.2147092,56.168358 42.8446104,56.168358 L73.4923289,56.168358 L93.4463599,66.667137 L89.5591399,56.168358 L91.2629467,56.168358 C98.8928478,56.168358 105.078455,49.9816558 105.078455,42.3528497 L105.078455,14.313401 C105.078455,6.68349992 98.8928478,0.497892658 91.2629467,0.497892658" id="Fill-184" fill="#56BEEB"></path>
                    <polygon id="Fill-185" fill="#FFFFFF" points="38.3685039 16.1314155 71.7701262 16.1314155 71.7701262 12.7380367 38.3685039 12.7380367"></polygon>
                    <polygon id="Fill-186" fill="#FFFFFF" points="78.0006281 16.1314155 95.2949246 16.1314155 95.2949246 12.7380367 78.0006281 12.7380367"></polygon>
                    <polygon id="Fill-187" fill="#FFFFFF" points="38.3685039 28.9395317 62.2513646 28.9395317 62.2513646 25.5461529 38.3685039 25.5461529"></polygon>
                    <polygon id="Fill-188" fill="#FFFFFF" points="69.0008925 28.9384367 95.2949246 28.9384367 95.2949246 25.5450579 69.0008925 25.5450579"></polygon>
                    <polygon id="Fill-189" fill="#FFFFFF" points="38.3685039 41.0534232 80.1139618 41.0534232 80.1139618 37.6600444 38.3685039 37.6600444"></polygon>
                    <path d="M11.6173128,58.2874952 L51.4399655,58.2874952 C57.7164571,58.2874952 62.8037878,63.3748259 62.8037878,69.6513175 L62.8037878,92.7118395 C62.8037878,98.9883311 57.7164571,104.075662 51.4399655,104.075662 L26.234355,104.075662 L9.82043172,112.710765 L13.017807,104.075662 L11.6173128,104.075662 C5.34191628,104.075662 0.253490544,98.9883311 0.253490544,92.7118395 L0.253490544,69.6513175 C0.253490544,63.3748259 5.34191628,58.2874952 11.6173128,58.2874952" id="Fill-190" fill="#56BEEB"></path>
                    <polygon id="Fill-191" fill="#FFFFFF" points="7.22256426 72.1259984 57.0808145 72.1259984 57.0808145 68.554136 7.22256426 68.554136"></polygon>
                    <polygon id="Fill-192" fill="#FFFFFF" points="47.7799563 93.0699018 52.9450314 93.0699018 52.9450314 89.4980393 47.7799563 89.4980393"></polygon>
                    <polygon id="Fill-193" fill="#FFFFFF" points="7.22256426 93.0699018 44.0460351 93.0699018 44.0460351 89.4980393 7.22256426 89.4980393"></polygon>
                    <polygon id="Fill-194" fill="#FFFFFF" points="30.6520985 83.4142663 39.3189566 83.4142663 39.3189566 79.8424039 30.6520985 79.8424039"></polygon>
                    <path d="M58.9189768,52.282233 C58.9189768,53.579798 58.8050977,54.8467032 58.5696745,56.0829487 C56.8592977,65.4659313 48.917324,72.6764507 39.1839441,73.2633661 C38.7612774,73.2940259 38.3287557,73.3049758 37.8962341,73.3049758 C26.2772787,73.3049758 16.8636364,63.8913335 16.8636364,52.282233 C16.8636364,40.6632777 26.2772787,31.2485404 37.8962341,31.2485404 C49.5042395,31.2485404 58.9189768,40.6632777 58.9189768,52.282233" id="Fill-195" fill="#F06064"></path>
                    <path d="M58.569346,56.0826202 C56.8589692,65.4656028 48.9180905,72.6761222 39.1836156,73.2630376 L29.6254344,63.7048564 L43.2723141,40.7866832 L58.569346,56.0826202 Z" id="Fill-196" fill="#D83A46"></path>
                    <path d="M39.5492333,60.4123263 L36.2412638,60.4123263 L36.74058,55.8396416 C36.1416196,55.4574895 35.7408527,54.7895447 35.7408527,54.0263356 C35.7408527,52.8371748 36.7055402,51.8724872 37.8947011,51.8724872 C39.0849569,51.8724872 40.0496444,52.8371748 40.0496444,54.0263356 C40.0496444,54.7895447 39.6499725,55.4574895 39.0510121,55.8396416 L39.5492333,60.4123263 Z M33.5508696,43.7060402 C33.5508696,42.9767758 34.14326,42.3843854 34.8725244,42.3843854 L40.9179727,42.3843854 C41.6472371,42.3843854 42.2396275,42.9767758 42.2396275,43.7060402 L42.2396275,48.7265765 L33.5508696,48.7265765 L33.5508696,43.7060402 Z M44.636564,48.7265765 L44.636564,43.7060402 C44.636564,41.6518361 42.9721769,39.9874489 40.9179727,39.9874489 L34.8725244,39.9874489 C32.8194152,39.9874489 31.1539331,41.6518361 31.1539331,43.7060402 L31.1539331,48.7265765 L28.4569689,48.7265765 L28.4569689,61.3102194 C28.4569689,63.1092905 29.9144027,64.5667242 31.7134738,64.5667242 L44.0781183,64.5667242 C45.8760945,64.5667242 47.3335282,63.1092905 47.3335282,61.3102194 L47.3335282,48.7265765 L44.636564,48.7265765 Z" id="Fill-197" fill="#FFFFFF"></path>
                </g>
                <g id="Group-6" transform="translate(118.979592, 82.597403)">
                    <path d="M234.661551,179.486264 C234.661551,173.330628 229.534111,168.339179 223.208411,168.339179 L12.2031131,168.339179 C5.87741277,168.339179 0.749972893,173.330628 0.749972893,179.486264 L0.749972893,322.52476 C0.749972893,328.680396 5.87741277,333.671846 12.2031131,333.671846 L223.208411,333.671846 C229.534111,333.671846 234.661551,328.680396 234.661551,322.52476 L234.661551,179.486264 Z" id="Fill-97" fill="#D5D4D5"></path>
                    <path d="M225.969862,163.731789 L9.44093502,163.731789 C4.64062387,163.731789 0.750215211,159.836616 0.750215211,155.031921 L0.750215211,9.64686129 C0.750215211,4.84216677 4.64062387,0.948205614 9.44093502,0.948205614 L225.969862,0.948205614 C230.770173,0.948205614 234.661793,4.84216677 234.661793,9.64686129 L234.661793,155.031921 C234.661793,159.836616 230.770173,163.731789 225.969862,163.731789" id="Fill-98" fill="#5C5C71"></path>
                    <polygon id="Fill-99" fill="#FFFFFF" points="12.6586701 151.813552 222.754065 151.813552 222.754065 12.865473 12.6586701 12.865473"></polygon>
                    <path d="M234.661551,174.805992 C234.661551,168.650356 229.534111,163.660119 223.208411,163.660119 L12.2031131,163.660119 C5.87741277,163.660119 0.749972893,168.650356 0.749972893,174.805992 L0.749972893,317.844488 C0.749972893,324.001337 5.87741277,328.992786 12.2031131,328.992786 L223.208411,328.992786 C229.534111,328.992786 234.661551,324.001337 234.661551,317.844488 L234.661551,174.805992 Z" id="Fill-100" fill="#E7E2E3"></path>
                    <path d="M13.0544958,256.5776 L13.0544958,185.488251 C13.0544958,181.972651 15.9017273,179.124032 19.412909,179.124032 L215.999099,179.124032 C219.510281,179.124032 222.357512,181.972651 222.357512,185.488251 L222.357512,256.5776 C222.357512,260.091988 219.510281,262.943032 215.999099,262.943032 L19.412909,262.943032 C15.9017273,262.943032 13.0544958,260.091988 13.0544958,256.5776" id="Fill-101" fill="#D5D4D5"></path>
                    <path d="M31.6590334,163.659634 L31.6590334,170.420404 C31.6590334,171.880488 32.8427548,173.065291 34.3027182,173.065291 L201.10929,173.065291 C202.568042,173.065291 203.752975,171.880488 203.752975,170.420404 L203.752975,163.659634 L31.6590334,163.659634 Z" id="Fill-102" fill="#5C5C71"></path>
                    <path d="M31.3241505,184.726558 L20.8002983,184.726558 C20.2126782,184.726558 19.7377357,185.20436 19.7377357,185.791304 L19.7377357,191.444884 C19.7377357,192.031828 20.2126782,192.50963 20.8002983,192.50963 L31.3241505,192.50963 C31.9117707,192.50963 32.3879247,192.031828 32.3879247,191.444884 L32.3879247,185.791304 C32.3879247,185.20436 31.9117707,184.726558 31.3241505,184.726558" id="Fill-103" fill="#5C5C71"></path>
                    <path d="M48.0107445,184.726558 L37.4396403,184.726558 C36.8653477,184.726558 36.3988863,185.214061 36.3988863,185.814345 L36.3988863,191.421843 C36.3988863,192.022127 36.8653477,192.50963 37.4396403,192.50963 L48.0107445,192.50963 C48.5850372,192.50963 49.0502869,192.022127 49.0502869,191.421843 L49.0502869,185.814345 C49.0502869,185.214061 48.5850372,184.726558 48.0107445,184.726558" id="Fill-104" fill="#5C5C71"></path>
                    <path d="M64.6725009,184.726558 L54.1013967,184.726558 C53.5283157,184.726558 53.0618543,185.214061 53.0618543,185.814345 L53.0618543,191.421843 C53.0618543,192.022127 53.5283157,192.50963 54.1013967,192.50963 L64.6725009,192.50963 C65.2480052,192.50963 65.7132549,192.022127 65.7132549,191.421843 L65.7132549,185.814345 C65.7132549,185.214061 65.2480052,184.726558 64.6725009,184.726558" id="Fill-105" fill="#5C5C71"></path>
                    <path d="M81.3353478,184.726558 L70.7642436,184.726558 C70.1899509,184.726558 69.7234896,185.214061 69.7234896,185.814345 L69.7234896,191.421843 C69.7234896,192.022127 70.1899509,192.50963 70.7642436,192.50963 L81.3353478,192.50963 C81.910852,192.50963 82.3748902,192.022127 82.3748902,191.421843 L82.3748902,185.814345 C82.3748902,185.214061 81.910852,184.726558 81.3353478,184.726558" id="Fill-106" fill="#5C5C71"></path>
                    <path d="M97.996983,184.726558 L87.4258789,184.726558 C86.8527978,184.726558 86.3863365,185.214061 86.3863365,185.814345 L86.3863365,191.421843 C86.3863365,192.022127 86.8527978,192.50963 87.4258789,192.50963 L97.996983,192.50963 C98.5724873,192.50963 99.037737,192.022127 99.037737,191.421843 L99.037737,185.814345 C99.037737,185.214061 98.5724873,184.726558 97.996983,184.726558" id="Fill-107" fill="#5C5C71"></path>
                    <path d="M114.659951,184.726558 L104.088847,184.726558 C103.514554,184.726558 103.049304,185.214061 103.049304,185.814345 L103.049304,191.421843 C103.049304,192.022127 103.514554,192.50963 104.088847,192.50963 L114.659951,192.50963 C115.235455,192.50963 115.699493,192.022127 115.699493,191.421843 L115.699493,185.814345 C115.699493,185.214061 115.235455,184.726558 114.659951,184.726558" id="Fill-108" fill="#5C5C71"></path>
                    <path d="M131.322798,184.726558 L120.751694,184.726558 C120.177401,184.726558 119.71094,185.214061 119.71094,185.814345 L119.71094,191.421843 C119.71094,192.022127 120.177401,192.50963 120.751694,192.50963 L131.322798,192.50963 C131.897091,192.50963 132.36234,192.022127 132.36234,191.421843 L132.36234,185.814345 C132.36234,185.214061 131.897091,184.726558 131.322798,184.726558" id="Fill-109" fill="#5C5C71"></path>
                    <path d="M147.984554,184.726558 L137.41345,184.726558 C136.840369,184.726558 136.373908,185.214061 136.373908,185.814345 L136.373908,191.421843 C136.373908,192.022127 136.840369,192.50963 137.41345,192.50963 L147.984554,192.50963 C148.560059,192.50963 149.025308,192.022127 149.025308,191.421843 L149.025308,185.814345 C149.025308,185.214061 148.560059,184.726558 147.984554,184.726558" id="Fill-110" fill="#5C5C71"></path>
                    <path d="M164.647401,184.726558 L154.076297,184.726558 C153.502004,184.726558 153.035543,185.214061 153.035543,185.814345 L153.035543,191.421843 C153.035543,192.022127 153.502004,192.50963 154.076297,192.50963 L164.647401,192.50963 C165.221694,192.50963 165.686944,192.022127 165.686944,191.421843 L165.686944,185.814345 C165.686944,185.214061 165.221694,184.726558 164.647401,184.726558" id="Fill-111" fill="#5C5C71"></path>
                    <path d="M181.309036,184.726558 L170.737932,184.726558 C170.164851,184.726558 169.69839,185.214061 169.69839,185.814345 L169.69839,191.421843 C169.69839,192.022127 170.164851,192.50963 170.737932,192.50963 L181.309036,192.50963 C181.884541,192.50963 182.34979,192.022127 182.34979,191.421843 L182.34979,185.814345 C182.34979,185.214061 181.884541,184.726558 181.309036,184.726558" id="Fill-112" fill="#5C5C71"></path>
                    <path d="M197.972004,184.726558 L187.4009,184.726558 C186.826608,184.726558 186.361358,185.214061 186.361358,185.814345 L186.361358,191.421843 C186.361358,192.022127 186.826608,192.50963 187.4009,192.50963 L197.972004,192.50963 C198.547509,192.50963 199.011547,192.022127 199.011547,191.421843 L199.011547,185.814345 C199.011547,185.214061 198.547509,184.726558 197.972004,184.726558" id="Fill-113" fill="#5C5C71"></path>
                    <path d="M214.611225,184.726558 L204.086161,184.726558 C203.499753,184.726558 203.023599,185.20436 203.023599,185.791304 L203.023599,191.444884 C203.023599,192.031828 203.499753,192.50963 204.086161,192.50963 L214.611225,192.50963 C215.198845,192.50963 215.674999,192.031828 215.674999,191.444884 L215.674999,185.791304 C215.674999,185.20436 215.198845,184.726558 214.611225,184.726558" id="Fill-114" fill="#5C5C71"></path>
                    <path d="M31.3241505,196.771886 L20.8002983,196.771886 C20.2126782,196.771886 19.7377357,197.248475 19.7377357,197.836632 L19.7377357,207.084638 C19.7377357,207.672795 20.2126782,208.149383 20.8002983,208.149383 L31.3241505,208.149383 C31.9117707,208.149383 32.3879247,207.672795 32.3879247,207.084638 L32.3879247,197.836632 C32.3879247,197.248475 31.9117707,196.771886 31.3241505,196.771886" id="Fill-115" fill="#5C5C71"></path>
                    <path d="M48.0107445,196.771886 L37.4396403,196.771886 C36.8653477,196.771886 36.3988863,197.258177 36.3988863,197.85846 L36.3988863,207.060384 C36.3988863,207.66188 36.8653477,208.149383 37.4396403,208.149383 L48.0107445,208.149383 C48.5850372,208.149383 49.0502869,207.66188 49.0502869,207.060384 L49.0502869,197.85846 C49.0502869,197.258177 48.5850372,196.771886 48.0107445,196.771886" id="Fill-116" fill="#5C5C71"></path>
                    <path d="M64.6725009,196.771886 L54.1013967,196.771886 C53.5283157,196.771886 53.0618543,197.258177 53.0618543,197.85846 L53.0618543,207.060384 C53.0618543,207.66188 53.5283157,208.149383 54.1013967,208.149383 L64.6725009,208.149383 C65.2480052,208.149383 65.7132549,207.66188 65.7132549,207.060384 L65.7132549,197.85846 C65.7132549,197.258177 65.2480052,196.771886 64.6725009,196.771886" id="Fill-117" fill="#5C5C71"></path>
                    <path d="M81.3353478,196.771886 L70.7642436,196.771886 C70.1899509,196.771886 69.7234896,197.258177 69.7234896,197.85846 L69.7234896,207.060384 C69.7234896,207.66188 70.1899509,208.149383 70.7642436,208.149383 L81.3353478,208.149383 C81.910852,208.149383 82.3748902,207.66188 82.3748902,207.060384 L82.3748902,197.85846 C82.3748902,197.258177 81.910852,196.771886 81.3353478,196.771886" id="Fill-118" fill="#5C5C71"></path>
                    <path d="M97.996983,196.771886 L87.4258789,196.771886 C86.8527978,196.771886 86.3863365,197.258177 86.3863365,197.85846 L86.3863365,207.060384 C86.3863365,207.66188 86.8527978,208.149383 87.4258789,208.149383 L97.996983,208.149383 C98.5724873,208.149383 99.037737,207.66188 99.037737,207.060384 L99.037737,197.85846 C99.037737,197.258177 98.5724873,196.771886 97.996983,196.771886" id="Fill-119" fill="#5C5C71"></path>
                    <path d="M114.659951,196.771886 L104.088847,196.771886 C103.514554,196.771886 103.049304,197.258177 103.049304,197.85846 L103.049304,207.060384 C103.049304,207.66188 103.514554,208.149383 104.088847,208.149383 L114.659951,208.149383 C115.235455,208.149383 115.699493,207.66188 115.699493,207.060384 L115.699493,197.85846 C115.699493,197.258177 115.235455,196.771886 114.659951,196.771886" id="Fill-120" fill="#5C5C71"></path>
                    <path d="M131.322798,196.771886 L120.751694,196.771886 C120.177401,196.771886 119.71094,197.258177 119.71094,197.85846 L119.71094,207.060384 C119.71094,207.66188 120.177401,208.149383 120.751694,208.149383 L131.322798,208.149383 C131.897091,208.149383 132.36234,207.66188 132.36234,207.060384 L132.36234,197.85846 C132.36234,197.258177 131.897091,196.771886 131.322798,196.771886" id="Fill-121" fill="#5C5C71"></path>
                    <path d="M147.984554,196.771886 L137.41345,196.771886 C136.840369,196.771886 136.373908,197.258177 136.373908,197.85846 L136.373908,207.060384 C136.373908,207.66188 136.840369,208.149383 137.41345,208.149383 L147.984554,208.149383 C148.560059,208.149383 149.025308,207.66188 149.025308,207.060384 L149.025308,197.85846 C149.025308,197.258177 148.560059,196.771886 147.984554,196.771886" id="Fill-122" fill="#5C5C71"></path>
                    <path d="M164.647401,196.771886 L154.076297,196.771886 C153.502004,196.771886 153.035543,197.258177 153.035543,197.85846 L153.035543,207.060384 C153.035543,207.66188 153.502004,208.149383 154.076297,208.149383 L164.647401,208.149383 C165.221694,208.149383 165.686944,207.66188 165.686944,207.060384 L165.686944,197.85846 C165.686944,197.258177 165.221694,196.771886 164.647401,196.771886" id="Fill-123" fill="#5C5C71"></path>
                    <path d="M181.309036,196.771886 L170.737932,196.771886 C170.164851,196.771886 169.69839,197.258177 169.69839,197.85846 L169.69839,207.060384 C169.69839,207.66188 170.164851,208.149383 170.737932,208.149383 L181.309036,208.149383 C181.884541,208.149383 182.34979,207.66188 182.34979,207.060384 L182.34979,197.85846 C182.34979,197.258177 181.884541,196.771886 181.309036,196.771886" id="Fill-124" fill="#5C5C71"></path>
                    <path d="M197.972004,196.771886 L187.4009,196.771886 C186.826608,196.771886 186.361358,197.258177 186.361358,197.85846 L186.361358,207.060384 C186.361358,207.66188 186.826608,208.149383 187.4009,208.149383 L197.972004,208.149383 C198.547509,208.149383 199.011547,207.66188 199.011547,207.060384 L199.011547,197.85846 C199.011547,197.258177 198.547509,196.771886 197.972004,196.771886" id="Fill-125" fill="#5C5C71"></path>
                    <path d="M214.611225,196.771886 L204.086161,196.771886 C203.499753,196.771886 203.023599,197.248475 203.023599,197.836632 L203.023599,207.084638 C203.023599,207.672795 203.499753,208.149383 204.086161,208.149383 L214.611225,208.149383 C215.198845,208.149383 215.674999,207.672795 215.674999,207.084638 L215.674999,197.836632 C215.674999,197.248475 215.198845,196.771886 214.611225,196.771886" id="Fill-126" fill="#5C5C71"></path>
                    <path d="M48.0107445,212.519084 L31.3477765,212.519084 L29.8938711,212.519084 L20.7766723,212.519084 C20.2023797,212.519084 19.7371299,213.006588 19.7371299,213.606871 L19.7371299,222.808795 C19.7371299,223.410291 20.2023797,223.897794 20.7766723,223.897794 L29.8938711,223.897794 L31.3477765,223.897794 L48.0107445,223.897794 C48.5850372,223.897794 49.0502869,223.410291 49.0502869,222.808795 L49.0502869,213.606871 C49.0502869,213.006588 48.5850372,212.519084 48.0107445,212.519084" id="Fill-127" fill="#5C5C71"></path>
                    <path d="M64.6725009,212.519084 L54.1013967,212.519084 C53.5283157,212.519084 53.0618543,213.006588 53.0618543,213.606871 L53.0618543,222.808795 C53.0618543,223.410291 53.5283157,223.897794 54.1013967,223.897794 L64.6725009,223.897794 C65.2480052,223.897794 65.7132549,223.410291 65.7132549,222.808795 L65.7132549,213.606871 C65.7132549,213.006588 65.2480052,212.519084 64.6725009,212.519084" id="Fill-128" fill="#5C5C71"></path>
                    <path d="M81.3353478,212.519084 L70.7642436,212.519084 C70.1899509,212.519084 69.7234896,213.006588 69.7234896,213.606871 L69.7234896,222.808795 C69.7234896,223.410291 70.1899509,223.897794 70.7642436,223.897794 L81.3353478,223.897794 C81.910852,223.897794 82.3748902,223.410291 82.3748902,222.808795 L82.3748902,213.606871 C82.3748902,213.006588 81.910852,212.519084 81.3353478,212.519084" id="Fill-129" fill="#5C5C71"></path>
                    <path d="M97.996983,212.519084 L87.4258789,212.519084 C86.8527978,212.519084 86.3863365,213.006588 86.3863365,213.606871 L86.3863365,222.808795 C86.3863365,223.410291 86.8527978,223.897794 87.4258789,223.897794 L97.996983,223.897794 C98.5724873,223.897794 99.037737,223.410291 99.037737,222.808795 L99.037737,213.606871 C99.037737,213.006588 98.5724873,212.519084 97.996983,212.519084" id="Fill-130" fill="#5C5C71"></path>
                    <path d="M114.659951,212.519084 L104.088847,212.519084 C103.514554,212.519084 103.049304,213.006588 103.049304,213.606871 L103.049304,222.808795 C103.049304,223.410291 103.514554,223.897794 104.088847,223.897794 L114.659951,223.897794 C115.235455,223.897794 115.699493,223.410291 115.699493,222.808795 L115.699493,213.606871 C115.699493,213.006588 115.235455,212.519084 114.659951,212.519084" id="Fill-131" fill="#5C5C71"></path>
                    <path d="M131.322798,212.519084 L120.751694,212.519084 C120.177401,212.519084 119.71094,213.006588 119.71094,213.606871 L119.71094,222.808795 C119.71094,223.410291 120.177401,223.897794 120.751694,223.897794 L131.322798,223.897794 C131.897091,223.897794 132.36234,223.410291 132.36234,222.808795 L132.36234,213.606871 C132.36234,213.006588 131.897091,212.519084 131.322798,212.519084" id="Fill-132" fill="#5C5C71"></path>
                    <path d="M147.984554,212.519084 L137.41345,212.519084 C136.840369,212.519084 136.373908,213.006588 136.373908,213.606871 L136.373908,222.808795 C136.373908,223.410291 136.840369,223.897794 137.41345,223.897794 L147.984554,223.897794 C148.560059,223.897794 149.025308,223.410291 149.025308,222.808795 L149.025308,213.606871 C149.025308,213.006588 148.560059,212.519084 147.984554,212.519084" id="Fill-133" fill="#5C5C71"></path>
                    <path d="M164.647401,212.519084 L154.076297,212.519084 C153.502004,212.519084 153.035543,213.006588 153.035543,213.606871 L153.035543,222.808795 C153.035543,223.410291 153.502004,223.897794 154.076297,223.897794 L164.647401,223.897794 C165.221694,223.897794 165.686944,223.410291 165.686944,222.808795 L165.686944,213.606871 C165.686944,213.006588 165.221694,212.519084 164.647401,212.519084" id="Fill-134" fill="#5C5C71"></path>
                    <path d="M181.309036,212.519084 L170.737932,212.519084 C170.164851,212.519084 169.69839,213.006588 169.69839,213.606871 L169.69839,222.808795 C169.69839,223.410291 170.164851,223.897794 170.737932,223.897794 L181.309036,223.897794 C181.884541,223.897794 182.34979,223.410291 182.34979,222.808795 L182.34979,213.606871 C182.34979,213.006588 181.884541,212.519084 181.309036,212.519084" id="Fill-135" fill="#5C5C71"></path>
                    <path d="M214.634851,212.519084 L197.971883,212.519084 L195.061649,212.519084 L187.400779,212.519084 C186.826486,212.519084 186.361237,213.006588 186.361237,213.606871 L186.361237,222.808795 C186.361237,223.410291 186.826486,223.897794 187.400779,223.897794 L195.061649,223.897794 L197.971883,223.897794 L214.634851,223.897794 C215.209144,223.897794 215.674394,223.410291 215.674394,222.808795 L215.674394,213.606871 C215.674394,213.006588 215.209144,212.519084 214.634851,212.519084" id="Fill-136" fill="#5C5C71"></path>
                    <path d="M72.9003942,228.12658 L62.32929,228.12658 C61.7562089,228.12658 61.2897476,228.614084 61.2897476,229.214367 L61.2897476,238.416291 C61.2897476,239.017787 61.7562089,239.50529 62.32929,239.50529 L72.9003942,239.50529 C73.4758984,239.50529 73.9411482,239.017787 73.9411482,238.416291 L73.9411482,229.214367 C73.9411482,228.614084 73.4758984,228.12658 72.9003942,228.12658" id="Fill-137" fill="#5C5C71"></path>
                    <path d="M89.563241,228.12658 L78.9921368,228.12658 C78.4178442,228.12658 77.9513829,228.614084 77.9513829,229.214367 L77.9513829,238.416291 C77.9513829,239.017787 78.4178442,239.50529 78.9921368,239.50529 L89.563241,239.50529 C90.1375337,239.50529 90.6027834,239.017787 90.6027834,238.416291 L90.6027834,229.214367 C90.6027834,228.614084 90.1375337,228.12658 89.563241,228.12658" id="Fill-138" fill="#5C5C71"></path>
                    <path d="M106.224997,228.12658 L95.6551048,228.12658 C95.0808122,228.12658 94.6143509,228.614084 94.6143509,229.214367 L94.6143509,238.416291 C94.6143509,239.017787 95.0808122,239.50529 95.6551048,239.50529 L106.224997,239.50529 C106.800502,239.50529 107.265751,239.017787 107.265751,238.416291 L107.265751,229.214367 C107.265751,228.614084 106.800502,228.12658 106.224997,228.12658" id="Fill-139" fill="#5C5C71"></path>
                    <path d="M122.887844,228.12658 L112.31674,228.12658 C111.742447,228.12658 111.277198,228.614084 111.277198,229.214367 L111.277198,238.416291 C111.277198,239.017787 111.742447,239.50529 112.31674,239.50529 L122.887844,239.50529 C123.463349,239.50529 123.928598,239.017787 123.928598,238.416291 L123.928598,229.214367 C123.928598,228.614084 123.463349,228.12658 122.887844,228.12658" id="Fill-140" fill="#5C5C71"></path>
                    <path d="M139.550691,228.12658 L128.979587,228.12658 C128.405294,228.12658 127.938833,228.614084 127.938833,229.214367 L127.938833,238.416291 C127.938833,239.017787 128.405294,239.50529 128.979587,239.50529 L139.550691,239.50529 C140.124984,239.50529 140.590234,239.017787 140.590234,238.416291 L140.590234,229.214367 C140.590234,228.614084 140.124984,228.12658 139.550691,228.12658" id="Fill-141" fill="#5C5C71"></path>
                    <path d="M156.212448,228.12658 L145.641343,228.12658 C145.068262,228.12658 144.601801,228.614084 144.601801,229.214367 L144.601801,238.416291 C144.601801,239.017787 145.068262,239.50529 145.641343,239.50529 L156.212448,239.50529 C156.787952,239.50529 157.253202,239.017787 157.253202,238.416291 L157.253202,229.214367 C157.253202,228.614084 156.787952,228.12658 156.212448,228.12658" id="Fill-142" fill="#5C5C71"></path>
                    <path d="M172.916731,228.12658 L162.345627,228.12658 C161.771334,228.12658 161.304873,228.614084 161.304873,229.214367 L161.304873,238.416291 C161.304873,239.017787 161.771334,239.50529 162.345627,239.50529 L172.916731,239.50529 C173.491023,239.50529 173.956273,239.017787 173.956273,238.416291 L173.956273,229.214367 C173.956273,228.614084 173.491023,228.12658 172.916731,228.12658" id="Fill-143" fill="#5C5C71"></path>
                    <path d="M214.634851,228.12658 L179.719312,228.12658 C179.240735,228.12658 178.854238,228.53162 178.854238,229.030038 L178.854238,238.601833 C178.854238,239.10025 179.240735,239.50529 179.719312,239.50529 L214.634851,239.50529 C215.209144,239.50529 215.674394,239.017787 215.674394,238.416291 L215.674394,229.214367 C215.674394,228.614084 215.209144,228.12658 214.634851,228.12658" id="Fill-144" fill="#5C5C71"></path>
                    <path d="M55.5168949,228.12658 L20.6013555,228.12658 C20.1239899,228.12658 19.7374934,228.53162 19.7374934,229.030038 L19.7374934,238.601833 C19.7374934,239.10025 20.1239899,239.50529 20.6013555,239.50529 L55.5168949,239.50529 C56.0923991,239.50529 56.5564372,239.017787 56.5564372,238.416291 L56.5564372,229.214367 C56.5564372,228.614084 56.0923991,228.12658 55.5168949,228.12658" id="Fill-145" fill="#5C5C71"></path>
                    <path d="M31.3478977,243.799319 L20.7767935,243.799319 C20.2025008,243.799319 19.7372511,244.286822 19.7372511,244.887106 L19.7372511,256.251264 C19.7372511,256.85276 20.2025008,257.33905 20.7767935,257.33905 L31.3478977,257.33905 C31.9234019,257.33905 32.3874401,256.85276 32.3874401,256.251264 L32.3874401,244.887106 C32.3874401,244.286822 31.9234019,243.799319 31.3478977,243.799319" id="Fill-146" fill="#5C5C71"></path>
                    <path d="M48.0095329,243.799319 L37.4396403,243.799319 C36.8653477,243.799319 36.3988863,244.286822 36.3988863,244.887106 L36.3988863,256.251264 C36.3988863,256.85276 36.8653477,257.33905 37.4396403,257.33905 L48.0095329,257.33905 C48.5850372,257.33905 49.0502869,256.85276 49.0502869,256.251264 L49.0502869,244.887106 C49.0502869,244.286822 48.5850372,243.799319 48.0095329,243.799319" id="Fill-147" fill="#5C5C71"></path>
                    <path d="M64.6725009,243.799319 L54.1013967,243.799319 C53.5283157,243.799319 53.0618543,244.286822 53.0618543,244.887106 L53.0618543,256.251264 C53.0618543,256.85276 53.5283157,257.33905 54.1013967,257.33905 L64.6725009,257.33905 C65.2480052,257.33905 65.7132549,256.85276 65.7132549,256.251264 L65.7132549,244.887106 C65.7132549,244.286822 65.2480052,243.799319 64.6725009,243.799319" id="Fill-148" fill="#5C5C71"></path>
                    <path d="M81.3353478,243.799319 L70.7642436,243.799319 C70.1899509,243.799319 69.7234896,244.286822 69.7234896,244.887106 L69.7234896,256.251264 C69.7234896,256.85276 70.1899509,257.33905 70.7642436,257.33905 L81.3353478,257.33905 C81.910852,257.33905 82.3748902,256.85276 82.3748902,256.251264 L82.3748902,244.887106 C82.3748902,244.286822 81.910852,243.799319 81.3353478,243.799319" id="Fill-149" fill="#5C5C71"></path>
                    <path d="M147.984554,243.799319 L143.827596,243.799319 L137.41345,243.799319 L131.322798,243.799319 L120.751694,243.799319 L114.65983,243.799319 L104.089937,243.799319 L87.4281809,243.799319 C86.8526766,243.799319 86.3862153,244.286822 86.3862153,244.887106 L86.3862153,256.251264 C86.3862153,256.85276 86.8526766,257.33905 87.4281809,257.33905 L104.089937,257.33905 L114.65983,257.33905 L120.751694,257.33905 L131.322798,257.33905 L137.41345,257.33905 L143.827596,257.33905 L147.984554,257.33905 C148.560059,257.33905 149.025308,256.85276 149.025308,256.251264 L149.025308,244.887106 C149.025308,244.286822 148.560059,243.799319 147.984554,243.799319" id="Fill-150" fill="#5C5C71"></path>
                    <path d="M164.647401,243.799319 L154.076297,243.799319 C153.502004,243.799319 153.035543,244.286822 153.035543,244.887106 L153.035543,256.251264 C153.035543,256.85276 153.502004,257.33905 154.076297,257.33905 L164.647401,257.33905 C165.221694,257.33905 165.686944,256.85276 165.686944,256.251264 L165.686944,244.887106 C165.686944,244.286822 165.221694,243.799319 164.647401,243.799319" id="Fill-151" fill="#5C5C71"></path>
                    <path d="M181.309036,243.799319 L170.739144,243.799319 C170.164851,243.799319 169.69839,244.286822 169.69839,244.887106 L169.69839,256.251264 C169.69839,256.85276 170.164851,257.33905 170.739144,257.33905 L181.309036,257.33905 C181.884541,257.33905 182.34979,256.85276 182.34979,256.251264 L182.34979,244.887106 C182.34979,244.286822 181.884541,243.799319 181.309036,243.799319" id="Fill-152" fill="#5C5C71"></path>
                    <path d="M197.972004,243.799319 L187.4009,243.799319 C186.826608,243.799319 186.361358,244.286822 186.361358,244.887106 L186.361358,256.251264 C186.361358,256.85276 186.826608,257.33905 187.4009,257.33905 L197.972004,257.33905 C198.547509,257.33905 199.011547,256.85276 199.011547,256.251264 L199.011547,244.887106 C199.011547,244.286822 198.547509,243.799319 197.972004,243.799319" id="Fill-153" fill="#5C5C71"></path>
                    <path d="M214.634851,243.799319 L204.063747,243.799319 C203.489454,243.799319 203.022993,244.286822 203.022993,244.887106 L203.022993,256.251264 C203.022993,256.85276 203.489454,257.33905 204.063747,257.33905 L214.634851,257.33905 C215.209144,257.33905 215.674394,256.85276 215.674394,256.251264 L215.674394,244.887106 C215.674394,244.286822 215.209144,243.799319 214.634851,243.799319" id="Fill-154" fill="#5C5C71"></path>
                    <path d="M153.78806,268.897603 L81.6234634,268.897603 C78.8295417,268.897603 76.5638724,271.165341 76.5638724,273.964239 L76.5638724,318.437375 C76.5638724,321.233847 78.8295417,323.501586 81.6234634,323.501586 L153.78806,323.501586 C156.583193,323.501586 158.848863,321.233847 158.848863,318.437375 L158.848863,273.964239 C158.848863,271.165341 156.583193,268.897603 153.78806,268.897603" id="Fill-155" fill="#D5D4D5"></path>
                    <g id="Group-3" transform="translate(170.816928, 103.454944)">
                        <g id="Group-2"></g>
                    </g>
                    <rect id="Rectangle-6" fill="#D8D8D8" x="50.0482718" y="54.4499707" width="148.505809" height="7.6229959"></rect>
                    <rect id="Rectangle-6-Copy" fill="#D8D8D8" x="50.0482718" y="68.6069631" width="148.505809" height="7.6229959"></rect>
                    <rect id="Rectangle-6-Copy-2" fill="#D8D8D8" x="50.0482718" y="82.7639554" width="148.505809" height="7.6229959"></rect>
                    <rect id="Rectangle-6-Copy-3" fill="#D8D8D8" x="50.0482718" y="99.0989467" width="74.2529043" height="7.6229959"></rect>
                    <g id="Group-4" transform="translate(166.464904, 105.632943)">
                        <ellipse id="Oval-3" fill="#FF6E00" cx="15.7760857" cy="15.7904915" rx="15.7760857" ry="15.7904915"></ellipse>
                        <polygon id="Fill-201" fill="#FFFFFF" points="7.88804284 15.97813 14.3300421 22.5334549 24.8768818 12.1468325 22.1404473 9.64974481 14.444013 17.368699 10.2825645 13.7361616"></polygon>
                    </g>
                </g>
                <g id="Page-1" transform="translate(428.804472, 230.721165) rotate(34.000000) translate(-428.804472, -230.721165) translate(348.665325, 170.248067)">
                    <polygon id="Fill-1" fill="#E6E6E6" points="67.9224302 0.000230813353 -2.23577083e-13 24.214398 32.179447 114.318853 100.098644 90.0659091"></polygon>
                    <polygon id="Fill-2" fill="#CCCCCC" points="21.1308685 59.0798628 74.086447 40.1702481 75.0130126 42.8056749 22.0602054 61.7157513"></polygon>
                    <polygon id="Fill-3" fill="#CCCCCC" points="25.4823548 71.3328204 78.4684186 52.4199743 79.3945223 55.0918697 26.4417151 73.9687089"></polygon>
                    <polygon id="Fill-4" fill="#CCCCCC" points="29.8636336 83.5857319 82.8529306 64.6728858 83.7790343 67.3447811 30.8262271 86.218389"></polygon>
                    <polygon id="Fill-5" fill="#CCCCCC" points="34.245328 95.8359659 87.2341631 76.9618964 88.1602668 79.5945535 35.2074597 98.5073996"></polygon>
                    <polygon id="Fill-6" fill="#CCCCCC" points="16.7496359 46.8300904 69.7024431 27.920014 70.6650366 30.5559025 17.6757396 49.4659789"></polygon>
                    <polygon id="Fill-7" fill="#CCCCCC" points="12.3683572 34.5442188 65.317931 15.6701493 66.283296 18.3060378 13.2912276 37.2156525"></polygon>
                    <polygon id="Fill-8-Copy" fill="#000000" opacity="0.199999988" points="62.9474581 107.15657 136.692065 117.00038 149.779925 19.1825347 76.0353181 9.34137291"></polygon>
                    <polygon id="Fill-8" fill="#FFFFFF" points="68.8311688 110.148587 145.943504 120.441939 159.629053 18.1570018 82.516718 7.86641929"></polygon>
                    <polygon id="Fill-9" fill="#CCCCCC" points="85.7364618 51.8881342 145.851907 59.9365958 145.461604 62.9297833 85.345235 54.9145589"></polygon>
                    <polygon id="Fill-10" fill="#CCCCCC" points="83.8839311 65.8122266 144.00261 73.8606882 143.609074 76.8538758 83.4571382 68.8054142"></polygon>
                    <polygon id="Fill-11" fill="#CCCCCC" points="81.995742 79.7389965 142.147677 87.7509896 141.75645 90.7778759 81.6045151 82.7294143"></polygon>
                    <polygon id="Fill-12" fill="#CCCCCC" points="80.1432113 93.663089 140.295147 101.675082 139.868354 104.704738 79.7519844 96.6562765"></polygon>
                    <polygon id="Fill-13" fill="#CCCCCC" points="87.5917639 37.9640417 147.740928 46.0129649 147.313673 49.038928 87.1977656 40.990928"></polygon>
                    <polygon id="Fill-14" fill="#CCCCCC" points="89.4442946 24.0733249 149.59623 32.085318 149.202232 35.114974 89.0530677 27.0637427"></polygon>
                </g>
                <ellipse id="Oval-4" fill="#000000" opacity="0.199999988" cx="138.64564" cy="108.163265" rx="39.3320965" ry="39.3320965"></ellipse>
                <g id="微信" transform="translate(96.363636, 65.881262)" fill-rule="nonzero">
                    <path d="M38.8404453,0 C17.3890457,0 0,17.3890457 0,38.8404453 C0,60.2918449 17.3890457,77.6808905 38.8404453,77.6808905 C60.2918449,77.6808905 77.6808905,60.2918449 77.6808905,38.8404453 C77.6808905,17.3890457 60.2918449,0 38.8404453,0 Z" id="Shape" fill="#9FC939"></path>
                    <path d="M38.8404453,0 C17.3890457,0 0,17.3890457 0,38.8404453 C0,60.2918449 17.3890457,77.6808905 38.8404453,77.6808905" id="Shape" fill="#B4E244"></path>
                    <path d="M31.4987483,48.6784742 C29.157468,48.6784742 27.4518995,48.2985976 25.2346605,47.6628857 L18.8465314,50.8879606 L20.6838938,45.4456467 C16.1873952,42.2825925 13.5360115,38.2977644 13.5360115,33.4213891 C13.5360115,24.816021 21.6374616,18.2340773 31.5065009,18.2340773 C40.2359104,18.2340773 48.0195046,23.4205559 49.539011,30.7622529 C48.9032992,30.6382115 48.3373605,30.5761908 47.8334426,30.5761908 C39.2280745,30.5761908 32.5841101,37.0340932 32.5841101,44.8176874 C32.5841101,46.1433793 32.7701721,47.3450298 33.088028,48.6164535 C32.5763575,48.6784742 32.0026663,48.6784742 31.4987483,48.6784742 L31.4987483,48.6784742 Z" id="Shape" fill="#FFFFFF"></path>
                    <path d="M57.8885439,54.8805413 L59.1522151,59.4390607 L54.345613,56.7179037 C52.5082507,57.0977803 50.7406615,57.6637189 48.9032992,57.6637189 C40.4219724,57.6637189 33.7159873,51.8415284 33.7159873,44.6316254 C33.7159873,37.4139698 40.4219724,31.5917793 48.9032992,31.5917793 C56.9427286,31.5917793 64.1526317,37.4139698 64.1526317,44.6316254 C64.1526317,48.6784742 61.4314747,52.2911783 57.8885439,54.8805413 L57.8885439,54.8805413 Z" id="Shape" fill="#FFFFFF"></path>
                    <path d="M43.9649032,38.8094349 C43.0811087,38.8094349 42.1895615,39.6312088 42.1895615,40.6467973 C42.1895615,41.4685712 43.0733561,42.2903451 43.9649032,42.2903451 C45.2905951,42.2903451 46.2441629,41.4685712 46.2441629,40.6467973 C46.2441629,39.6312088 45.2983476,38.8094349 43.9649032,38.8094349 L43.9649032,38.8094349 Z M38.1427127,30.2660875 C39.5381778,30.2660875 40.4219724,29.3822929 40.4219724,28.0488485 C40.4219724,26.6533834 39.5381778,25.8316095 38.1427127,25.8316095 C36.8170209,25.8316095 35.5455971,26.6533834 35.5455971,28.0488485 C35.5533497,29.3822929 36.8170209,30.2660875 38.1427127,30.2660875 Z M25.6145372,25.8393621 C24.2888453,25.8393621 22.8933802,26.661136 22.8933802,28.0566011 C22.8933802,29.3822929 24.2888453,30.2738401 25.6145372,30.2738401 C26.8782083,30.2738401 27.8937968,29.3900455 27.8937968,28.0566011 C27.8937968,26.661136 26.8782083,25.8393621 25.6145372,25.8393621 Z M53.9037158,38.8094349 C52.9579005,38.8094349 52.128374,39.6312088 52.128374,40.6467973 C52.128374,41.4685712 52.9501479,42.2903451 53.9037158,42.2903451 C55.1673869,42.2903451 56.1209548,41.4685712 56.1209548,40.6467973 C56.1132022,39.6312088 55.1673869,38.8094349 53.9037158,38.8094349 L53.9037158,38.8094349 Z" id="Shape" fill="#A5CE42"></path>
                </g>
            </g>
        </g>
    </g>
</svg>