<?xml version="1.0" encoding="UTF-8"?>
<svg width="550px" height="427px" viewBox="0 0 550 427" version="1.1" xmlns="http://www.w3.org/2000/svg" xmlns:xlink="http://www.w3.org/1999/xlink">
    <!-- Generator: Sketch 43.1 (39012) - http://www.bohemiancoding.com/sketch -->
    <title>矢量图2</title>
    <desc>Created with Sketch.</desc>
    <defs>
        <rect id="path-1" x="0" y="0" width="550" height="427"></rect>
        <polygon id="path-2" points="0 12.6227658 0 0.0469610102 10.74133 0.0469610102 10.74133 12.6227658 9.20874659e-17 12.6227658"></polygon>
    </defs>
    <g id="Page-1" stroke="none" stroke-width="1" fill="none" fill-rule="evenodd">
        <g id="矢量图2">
            <g id="Rectangle-9" opacity="0">
                <use fill="#D8D8D8" fill-rule="evenodd" xlink:href="#path-1"></use>
                <rect stroke="#979797" stroke-width="1" x="0.5" y="0.5" width="549" height="426"></rect>
            </g>
            <g id="Group-3" transform="translate(33.000000, 26.000000)">
                <g id="Page-1" transform="translate(32.274368, 18.390076)">
                    <path d="M37.7725654,343.716485 L434.459742,343.716485 C437.736208,343.716485 440.431087,346.413917 440.431087,349.692527 L440.431087,352.000339 C440.431087,355.279383 437.736208,357.976381 434.459742,357.976381 L37.7725654,357.976381 C34.4935004,357.976381 31.7999209,355.279383 31.7999209,352.000339 L31.7999209,349.692527 C31.7999209,346.413917 34.4935004,343.716485 37.7725654,343.716485 Z" id="Fill-1" fill="#365772"></path>
                    <polygon id="Fill-3" fill="#234159" points="194.136371 336.084323 267.645108 336.084323 267.645108 313.412722 194.136371 313.412722"></polygon>
                    <path d="M87.5565834,94.0139323 L374.224895,94.0139323 C377.046658,94.0139323 379.319311,96.2883733 379.319311,99.0789842 L379.319311,313.119576 C379.319311,315.946592 377.046658,318.221033 374.224895,318.221033 L87.5565834,318.221033 C84.7330885,318.221033 82.4591358,315.946592 82.4591358,313.119576 L82.4591358,99.0789842 C82.4591358,96.2883733 84.7330885,94.0139323 87.5565834,94.0139323" id="Fill-5" fill="#365772"></path>
                    <path d="M95.1518713,106.874752 L366.629607,106.874752 C368.285596,106.874752 369.64581,108.206566 369.64581,109.86299 L369.64581,280.349856 C369.64581,282.003246 368.285596,283.368864 366.629607,283.368864 L95.1518713,283.368864 C93.4954498,283.368864 92.1322041,282.003246 92.1322041,280.349856 L92.1322041,109.86299 C92.1322041,108.206566 93.4954498,106.874752 95.1518713,106.874752" id="Fill-6" fill="#FFFFFF"></path>
                    <path d="M178.266034,331.341108 L283.513539,331.341108 C286.306287,331.341108 288.577209,333.615115 288.577209,336.374522 L288.577209,338.324352 C288.577209,341.086793 286.306287,343.3608 283.513539,343.3608 L178.266034,343.3608 C175.475018,343.3608 173.202365,341.086793 173.202365,338.324352 L173.202365,336.374522 C173.202365,333.615115 175.475018,331.341108 178.266034,331.341108" id="Fill-7" fill="#213A4E"></path>
                    <polygon id="Fill-8" fill="#E84C40" points="417.062986 343.747559 432.7061 343.747559 432.7061 265.604387 417.062986 265.604387"></polygon>
                    <polygon id="Fill-9" fill="#F99E3F" points="306.004971 291.196053 318.370753 296.556678 293.315267 343.747429 280.950784 338.389405"></polygon>
                    <polygon id="Fill-10" fill="#FCB245" points="351.149537 343.747559 395.871184 343.747559 395.871184 247.868254 351.149537 247.868254"></polygon>
                    <polygon id="Fill-11" fill="#FFE8B1" points="351.149537 307.11207 395.871184 307.11207 395.871184 284.508945 351.149537 284.508945"></polygon>
                    <polygon id="Fill-12" fill="#FFE8B1" points="351.149537 277.457658 395.871184 277.457658 395.871184 270.408971 351.149537 270.408971"></polygon>
                    <polygon id="Fill-13" fill="#FFE8B1" points="351.149537 322.380035 395.871184 322.380035 395.871184 315.328748 351.149537 315.328748"></polygon>
                    <polygon id="Fill-14" fill="#E84C40" points="318.208618 343.747559 351.14997 343.747559 351.14997 256.217117 318.208618 256.217117"></polygon>
                    <polygon id="Fill-15" fill="#F87B55" points="327.424817 332.478502 341.964084 332.478502 341.964084 267.517379 327.424817 267.517379"></polygon>
                    <polygon id="Fill-16" fill="#0071C1" points="395.871617 343.747559 416.413409 343.747559 416.413409 259.205355 395.871617 259.205355"></polygon>
                    <polygon id="Fill-17" fill="#318CCD" points="395.871617 330.887086 416.413409 330.887086 416.413409 272.065828 395.871617 272.065828"></polygon>
                    <g id="Group-2">
                        <path d="M67.1988177,79.3279674 L317.32775,79.3279674 L317.32775,208.690351 C317.32775,215.867193 311.513064,221.685173 304.319303,221.685173 L67.1988177,221.685173 L67.1988177,79.3279674 Z" id="Rectangle-2" fill="#000000" opacity="0.0649343297"></path>
                        <path d="M8.79460522,0.000216695984 L302.440674,0.000216695984 C307.241914,0.000216695984 311.169257,3.93064846 311.169257,8.73869895 L311.169257,205.237751 C311.169257,210.014597 307.241914,213.945029 302.440674,213.945029 L8.79460522,213.945029 C3.99163253,213.945029 0.0629905378,210.014597 0.0629905378,205.237751 L0.0629905378,8.73869895 C0.0629905378,3.93064846 3.99163253,0.000216695984 8.79460522,0.000216695984" id="Fill-18" fill="#FFFFFF"></path>
                        <path d="M6.61938821,0.000216695984 L304.581679,0.000216695984 C308.217579,0.000216695984 311.169257,2.95421635 311.169257,6.56047092 L311.169257,26.7287995 C311.169257,27.0560105 310.909859,27.2818077 310.617982,27.2818077 L0.0629905378,27.2818077 L0.0629905378,6.56047092 C0.0629905378,2.95421635 3.01770001,0.000216695984 6.61938821,0.000216695984" id="Fill-19" fill="#353F49"></path>
                        <path d="M15.4480064,19.3250779 C18.5958568,19.3250779 21.1586548,16.6276463 21.1586548,13.349036 C21.1586548,10.0366212 18.5958568,7.33918961 15.4480064,7.33918961 C12.2988569,7.33918961 9.73346058,10.0366212 9.73346058,13.349036 C9.73346058,16.6276463 12.2988569,19.3250779 15.4480064,19.3250779" id="Fill-20" fill="#F87B55"></path>
                        <path d="M31.4141339,19.3250779 C34.5632834,19.3250779 37.1260814,16.6276463 37.1260814,13.349036 C37.1260814,10.0366212 34.5632834,7.33918961 31.4141339,7.33918961 C28.2662835,7.33918961 25.7021864,10.0366212 25.7021864,13.349036 C25.7021864,16.6276463 28.2662835,19.3250779 31.4141339,19.3250779" id="Fill-21" fill="#76D0DE"></path>
                        <path d="M47.3800449,19.3250779 C50.5291944,19.3250779 53.0950237,16.6276463 53.0950237,13.349036 C53.0950237,10.0366212 50.5291944,7.33918961 47.3800449,7.33918961 C44.2339267,7.33918961 41.6711287,10.0366212 41.6711287,13.349036 C41.6711287,16.6276463 44.2339267,19.3250779 47.3800449,19.3250779" id="Fill-22" fill="#FFDB79"></path>
                        <polygon id="Fill-23" fill="#FFFFFF" points="61.7601217 19.6495584 302.311061 19.6495584 302.311061 8.31549169 61.7601217 8.31549169"></polygon>
                        <polygon id="Fill-24" fill="#CCCCCC" points="25.0538219 46.770361 91.8130204 46.770361 91.8130204 37.9360992 25.0538219 37.9360992"></polygon>
                        <polygon id="Fill-25" fill="#CCCCCC" points="119.49453 46.770361 186.221249 46.770361 186.221249 37.9360992 119.49453 37.9360992"></polygon>
                        <polygon id="Fill-26" fill="#CCCCCC" points="214.1981 46.770361 280.954267 46.770361 280.954267 37.9360992 214.1981 37.9360992"></polygon>
                        <polygon id="Fill-27" fill="#CCCCCC" points="50.0118712 125.014947 169.409762 125.014947 169.409762 120.077312 50.0118712 120.077312"></polygon>
                        <polygon id="Fill-28" fill="#CCCCCC" points="34.7905488 138.16926 154.189739 138.16926 154.189739 133.26543 34.7905488 133.26543"></polygon>
                        <polygon id="Fill-29" fill="#07C6A2" points="196.639166 192.602858 292.70425 192.602858 292.70425 63.2058846 196.639166 63.2058846"></polygon>
                        <polygon id="Fill-30" fill="#CCCCCC" points="30.9939875 151.354344 150.391879 151.354344 150.391879 146.450514 30.9939875 146.450514"></polygon>
                        <polygon id="Fill-31" fill="#CCCCCC" points="46.2140108 164.542461 165.613201 164.542461 165.613201 159.638631 46.2140108 159.638631"></polygon>
                        <polygon id="Fill-32" fill="#318CCD" points="20.5427258 106.824619 124.266323 106.824619 124.266323 63.2058846 20.5427258 63.2058846"></polygon>
                        <polygon id="Fill-33" fill="#F87B55" points="140.168835 105.656628 179.793035 105.656628 179.793035 63.206318 140.168835 63.206318"></polygon>
                        <polygon id="Fill-34" fill="#CCCCCC" points="38.5879762 177.696774 158.019645 177.696774 158.019645 172.792944 38.5879762 172.792944"></polygon>
                        <polygon id="Fill-35" fill="#CCCCCC" points="50.3037479 190.881425 169.734118 190.881425 169.734118 185.977595 50.3037479 185.977595"></polygon>
                    </g>
                    <g id="Group" transform="translate(385.180505, 178.943859)" fill="#F87B55">
                        <g id="Group-4">
                            <path d="M4.30457182,8.34668582 C2.11630822,8.34668582 0.328155652,6.54765719 0.328155652,4.33024193 C0.328155652,2.11164288 2.11630822,0.311599561 4.30457182,0.311599561 L15.2954449,0.311599561 L15.346001,0.311599561 C18.8976121,0.146375742 21.7729721,1.02170684 23.9357073,3.0111572 C26.1376528,5.02597457 27.3878746,7.96685707 27.6248044,11.8710096 L27.6248044,12.1109816 L27.6371514,12.1109816 L27.6371514,31.5270633 C27.6371514,33.7576694 25.8621802,35.5578818 23.6739166,35.5578818 C21.4731391,35.5578818 19.6969999,33.7576694 19.6969999,31.5270633 L19.6969999,12.1241724 C19.5847085,10.5531087 19.2218054,9.5127229 18.6341528,8.98086117 C18.0970563,8.48654263 17.1214728,8.27075389 15.7701387,8.32131881 C15.6082923,8.34668582 15.4584592,8.34668582 15.2954449,8.34668582 L4.30457182,8.34668582 Z" id="Fill-36"></path>
                            <path d="M8.91849601,29.1951921 C7.51777371,27.7759922 7.51777371,25.4958358 8.91849601,24.0756213 C10.3062039,22.6684284 12.5700514,22.6684284 13.9577592,24.0756213 L23.6360078,33.8853838 L33.3027436,24.0756213 C34.6899509,22.6684284 36.953131,22.6684284 38.3413394,24.0756213 C39.7415612,25.4958358 39.7415612,27.7759922 38.3413394,29.1951921 L26.1494659,41.5528175 C24.7612575,42.9598412 22.4980774,42.9598412 21.1103695,41.5528175 L8.91849601,29.1951921 Z" id="Fill-37"></path>
                        </g>
                    </g>
                    <g id="Group-5" transform="translate(231.000000, 248.000000)" fill="#FEC00F">
                        <path d="M32.6288476,31.616559 C34.6582874,31.616559 36.3051951,33.2658663 36.3051951,35.2999231 C36.3051951,37.3328679 34.6582874,38.9661625 32.6288476,38.9661625 L22.4625557,38.9661625 L22.4126023,38.9661625 C19.1345499,39.1169487 16.4721452,38.3160917 14.4593566,36.5004303 C12.4292509,34.6658649 11.281655,31.9655022 11.0647463,28.3993421 C11.0474291,28.3152755 11.0474291,28.2487783 11.0474291,28.1822812 L11.0474291,10.4148642 C11.0474291,8.38191944 12.6952249,6.7312777 14.7086795,6.7312777 C16.7387853,6.7312777 18.3856931,8.38191944 18.3856931,10.4148642 L18.3856931,28.1662685 C18.502251,29.5998493 18.8352736,30.5494909 19.3672217,31.0332077 C19.8838507,31.499355 20.7648065,31.6990688 22.0296264,31.6325717 C22.1626134,31.6325717 22.3129176,31.616559 22.4625557,31.616559 L32.6288476,31.616559 Z" id="Fill-38"></path>
                        <path d="M28.2405878,12.2894663 C29.5211707,13.5882736 29.5211707,15.6732596 28.2405878,16.9720669 C26.9424657,18.2561959 24.8626286,18.2561959 23.5645065,16.9720669 L14.6297321,8.00495902 L5.67830669,16.9720669 C4.37974057,18.2561959 2.29968141,18.2561959 1.00311342,16.9720669 C-0.278135525,15.6732596 -0.278135525,13.5882736 1.00311342,12.2894663 L12.283921,0.988730824 C13.581155,-0.29428618 15.6612141,-0.29428618 16.9591142,0.988730824 L28.2405878,12.2894663 Z" id="Fill-39"></path>
                    </g>
                </g>
                <g id="Page-1" transform="translate(0.000000, 241.612457)">
                    <path d="M44.9386981,30.2936916 C47.1010172,30.8232517 48.4464914,33.0421932 47.8929068,35.2107842 C47.3663863,37.4043744 45.149236,38.7268663 42.9591498,38.1973062 C40.7947219,37.6427469 39.4492477,35.4491567 40.0028323,33.2552144 C40.5314617,31.0866234 42.7465031,29.7387802 44.9386981,30.2936916 L44.9386981,30.2936916 Z M38.1037735,25.1656904 L94.2558814,39.1212196 L80.3227719,95.3725476 L24.1973766,81.4170184 L38.1037735,25.1656904 Z" id="Fill-1" fill="#FECA7E"></path>
                    <path d="M44.9386981,30.2936916 C47.1010172,30.8232517 48.4464914,33.0421932 47.8929068,35.2107842 C47.3663863,37.4043744 45.149236,38.7268663 42.9591498,38.1973062 C40.7947219,37.6427469 39.4492477,35.4491567 40.0028323,33.2552144 C40.5314617,31.0866234 42.7465031,29.7387802 44.9386981,30.2936916 L44.9386981,30.2936916 Z M33.3278321,44.4897059 L89.4781826,58.4455871 L94.2558814,39.1212196 L38.1037735,25.1656904 L33.3278321,44.4897059 Z" id="Fill-3" fill="#FFE5AF"></path>
                    <polygon id="Fill-5" fill="#3F3F41" points="58.0780903 59.3716132 79.6886275 64.7355221 79.1350429 67.0372073 57.5245057 61.6708337"></polygon>
                    <polygon id="Fill-7" fill="#3F3F41" points="39.9778067 60.8756132 72.0642737 68.859859 71.5103376 71.1337282 39.4238707 63.1769464"></polygon>
                    <polygon id="Fill-9" fill="#3F3F41" points="48.0783488 68.8872876 72.8033706 75.0441284 72.2220189 77.3204623 47.5244127 71.1861561"></polygon>
                    <polygon id="Fill-11" fill="#FFFFFF" points="47.0232341 36.3729293 37.6024543 28.0217941 28.1816744 19.6664338 26.6256623 21.8096735 25.0946054 23.9757998 36.0717489 30.1882725"></polygon>
                    <polygon id="Fill-13" fill="#F25E4F" points="4.19560897 10.9968936 4.35342452 10.8113363 8.97365924 4.31014062 9.10405917 4.12423121 28.5522773 14.4330487 25.0694393 19.3501413 23.8016427 21.1472656 20.2938494 26.0643582"></polygon>
                    <g id="Group-17" transform="translate(0.000000, 0.305272)">
                        <mask id="mask-3" fill="white">
                            <use xlink:href="#path-2"></use>
                        </mask>
                        <g id="Clip-16"></g>
                        <path d="M0.291870895,8.81421856 L6.04212119,0.726807198 C6.57075055,0.0138023652 7.54822281,-0.171754942 8.25962297,0.3299892 L10.0813557,1.62536934 C10.7927558,2.15246476 10.9505714,3.13130597 10.4493576,3.84677551 L4.69664697,11.9612987 C4.17047798,12.6743035 3.19335721,12.8323969 2.48160557,12.3303007 L0.660224337,11.0356247 C-0.051527304,10.5335285 -0.209342853,9.529336 0.291870895,8.81421856" id="Fill-15" fill="#C44D40" mask="url(#mask-3)"></path>
                    </g>
                    <path d="M33.4606221,12.3193503 C28.2340804,8.90819436 21.1907268,10.2035745 17.5479643,15.3315757 C13.8795436,20.4595769 14.9621091,27.5449083 19.8955145,31.3778815 L33.4606221,12.3193503 Z" id="Fill-18" fill="#DA5547"></path>
                    <path d="M19.4219273,27.4648405 L29.6071811,13.1378447 C29.9502279,12.6885636 30.5843019,12.5579341 31.0577486,12.9019369 C31.5065914,13.2431229 31.6116846,13.8783134 31.2957021,14.3550583 L21.1107997,28.6820542 C20.7674015,29.1313353 20.1333274,29.2366135 19.6598808,28.9204267 C19.2113894,28.5764239 19.0785291,27.9415855 19.4219273,27.4648405" id="Fill-20" fill="#F36E61"></path>
                </g>
                <g id="Page-1" transform="translate(407.084838, 0.000000)">
                    <path d="M38.9037389,65.8323755 L51.1544281,97.6931825 L52.8387922,93.9301325 L56.5066852,85.79893 L64.6734438,89.4258868 L68.4537993,91.1292467 L56.2031101,59.2420991 L38.9037389,65.8323755 Z M9.35331098,91.1292467 L13.134034,89.4258868 L21.3287244,85.79893 L24.9708908,93.9301325 L26.6526822,97.6931825 L38.9037389,65.8323755 L21.6043677,59.2420991 L9.35331098,91.1292467 Z" id="Fill-1" fill="#C63D3E"></path>
                    <polygon id="Fill-2" fill="#FFDB79" points="38.9037389 -7.31683839e-05 28.4737653 10.353619 13.518832 9.20085112 12.1957443 23.8103824 -0.000183762176 32.5185176 8.41538883 44.5203276 4.69016201 58.9941315 18.9001235 62.8383984 25.3847232 76.2955276 38.7387205 70.1460907 52.4249598 76.2955276 58.6868397 63.0315629 73.1169483 58.9941315 69.3365928 44.8488537 77.8072941 32.5185176 65.7789571 24.0869588 64.3165777 9.20085112 49.6372876 10.4626399"></polygon>
                    <path d="M38.9037389,61.4928318 C51.817442,61.4928318 62.3569379,51.0008514 62.3569379,38.1488247 C62.3569379,25.294603 51.817442,14.8311583 38.9037389,14.8311583 C25.9900358,14.8311583 15.4788393,25.294603 15.4788393,38.1488247 C15.4788393,51.0008514 25.9900358,61.4928318 38.9037389,61.4928318" id="Fill-3" fill="#FFFFFF"></path>
                </g>
            </g>
        </g>
    </g>
</svg>