<svg id="图层_1" data-name="图层 1" xmlns="http://www.w3.org/2000/svg" viewBox="0 0 130 36"><defs><style>.cls-1{fill:#fff;}</style></defs><title>icon画板 3</title><g id="切图"><path class="cls-1" d="M34.88,11.49l-8.07,8.07a1.41,1.41,0,0,1-2,0l-8-8.07a1.41,1.41,0,0,1,0-2l8.07-8a1.41,1.41,0,0,1,2,0l8,8.07A1.38,1.38,0,0,1,34.88,11.49ZM14.13,35H2.73A1.41,1.41,0,0,1,1.3,33.59V22.18a1.41,1.41,0,0,1,1.43-1.43h11.4a1.41,1.41,0,0,1,1.43,1.43v11.4A1.41,1.41,0,0,1,14.13,35Zm0-17.11H2.73A1.41,1.41,0,0,1,1.3,16.48V5.08A1.41,1.41,0,0,1,2.73,3.65h11.4a1.41,1.41,0,0,1,1.43,1.43v11.4A1.41,1.41,0,0,1,14.13,17.91Zm5.7,2.85h11.4a1.41,1.41,0,0,1,1.43,1.43v11.4A1.41,1.41,0,0,1,31.23,35H19.83a1.41,1.41,0,0,1-1.43-1.43V22.18A1.41,1.41,0,0,1,19.83,20.76Z"/><path class="cls-1" d="M49.11,14.51v-2a20.08,20.08,0,0,0,2.78.17,40.88,40.88,0,0,0,.46-5.14,10,10,0,0,0,2.59.55c.58,0,.53.17.07.55s-.65,1.39-1.22,4a35.42,35.42,0,0,0,4.49-.17c-.62,6-1.22,8.59-2.23,10.63,1,.67,1.92,1.3,2.57,1.78a7.89,7.89,0,0,0-1.73,1.87,12.44,12.44,0,0,0-1.82-1.94,19,19,0,0,1-4.8,4.8,4.91,4.91,0,0,0-2-1.85,12.24,12.24,0,0,0,5.38-4.08,34,34,0,0,0-3.82-2.28,45.82,45.82,0,0,0,1.82-7.13A20.89,20.89,0,0,0,49.11,14.51ZM56,14.31H53.43C53,16,52.57,18.08,52,20.72q1.26.68,2.45,1.44A23.64,23.64,0,0,0,56,14.31Zm14.3,2.93V19.5c-1.27-.14-2.86-.22-5.09-.24v7.56c0,1.82-.91,2.28-4.08,2.66a5.18,5.18,0,0,0-1.1-2.71c2.76.38,3.19.17,3.19-.84V19.26a44.83,44.83,0,0,0-4.78.24V17.24a45.85,45.85,0,0,0,4.78.24V14.15a25.1,25.1,0,0,0,3.19-3.07H61.33c-1,0-1.73,0-2.45.07v-2c1.51.12,2.54.14,5.35.14a49,49,0,0,0,5.38-.14v2c-1.06.43-1.9.94-4.34,3.41v2.93C67.5,17.46,69.08,17.39,70.35,17.24Z"/><path class="cls-1" d="M75.89,28.57H73.83A17.09,17.09,0,0,0,74,26v-5.4a11.62,11.62,0,0,0-.19-2.42,32.25,32.25,0,0,0,4.3.24,32.21,32.21,0,0,0,4.3-.24,13.27,13.27,0,0,0-.19,2.42V26a15.17,15.17,0,0,0,.17,2.42H80.33V26.72H75.89ZM80.33,20H75.89v5.06h4.44Zm9.17-9.84v4.34a12.38,12.38,0,0,0,.14,1.8,44.69,44.69,0,0,0-6.36-.26,53.21,53.21,0,0,0-6.36.29,9.73,9.73,0,0,0,.17-1.82V10.21a8.23,8.23,0,0,0-.17-1.78,45.31,45.31,0,0,0,6.36.26,47.66,47.66,0,0,0,6.36-.26A8.72,8.72,0,0,0,89.5,10.21ZM79.16,14.36h8.16V10.43H79.16ZM86.24,28.5H84.17A16.34,16.34,0,0,0,84.34,26V20.48a15.47,15.47,0,0,0-.17-2.4,34.66,34.66,0,0,0,4.49.22A42.65,42.65,0,0,0,93,18.06a17,17,0,0,0-.17,2.4v5.38A23.06,23.06,0,0,0,93,28.26H90.92V26.63H86.24ZM90.92,20H86.24v5h4.68Z"/><path class="cls-1" d="M99.73,14.48a27.07,27.07,0,0,0-2.78.12v-1.9a27.58,27.58,0,0,0,2.78.12,38.42,38.42,0,0,0-.22-5,13.91,13.91,0,0,0,2.14.14c.7,0,.77.14.29.58a1.12,1.12,0,0,0-.31.91v3.36c1,0,1.75,0,2.35-.12v1.9c-.6-.07-1.39-.1-2.35-.12v4.13c.79-.31,1.51-.6,2-.86a5,5,0,0,0,.14,1.73c-.74.24-1.46.53-2.18.82v6.24c0,1.73-.46,1.92-3.53,2.38a4.86,4.86,0,0,0-1-2.23c2,.22,2.59-.17,2.59-1.27v-4.3a23.57,23.57,0,0,0-2.57,1.39,22.3,22.3,0,0,0-.55-2.4,30.7,30.7,0,0,0,3.12-.84Zm7.8,14.59h-2.06a35,35,0,0,0,.26-5.16V15.68c-.36.62-.72,1.22-1.1,1.78a3.91,3.91,0,0,0-1.66-1,11.34,11.34,0,0,0,2.74-4.32,23,23,0,0,0,1.2-4.58,12.13,12.13,0,0,0,2.18.72c.55,0,.62.26,0,.67-.29.19-.5.55-1.51,2.83H112a50.21,50.21,0,0,0,5.35-.12v1.94a41.09,41.09,0,0,0-4.44-.1v2.74a33.43,33.43,0,0,0,3.72-.12v1.94A34.08,34.08,0,0,0,113,18v3a34.2,34.2,0,0,0,3.77-.12v1.92a31.63,31.63,0,0,0-3.77-.1v2.81a38.08,38.08,0,0,0,5.06-.14v2a44,44,0,0,0-5.26-.12h-5.23Zm0-12.82H111V13.52h-3.5Zm0,4.68H111V18h-3.5Zm0,4.51H111V22.64h-3.5ZM112,11.29a9.71,9.71,0,0,0-1.7-2.64l1.87-1.1A24.6,24.6,0,0,0,114,10.16Z"/></g></svg>